<svg xmlns="http://www.w3.org/2000/svg" xmlns:xlink="http://www.w3.org/1999/xlink" zoomAndPan="magnify" preserveAspectRatio="xMidYMid meet" version="1.0" viewBox="16.33 27.05 342.33 20.15"><defs><g/></defs><g fill="#0f4d79" fill-opacity="1"><g transform="translate(16.334415, 44.078343)"><g><path d="M 10 0 L 8.375 -4.15625 L 3.140625 -4.15625 L 1.53125 0 L 0 0 L 5.15625 -13.109375 L 6.4375 -13.109375 L 11.5625 0 Z M 7.90625 -5.515625 L 6.375 -9.5625 C 6.1875 -10.070312 5.988281 -10.695312 5.78125 -11.4375 C 5.644531 -10.875 5.457031 -10.25 5.21875 -9.5625 L 3.671875 -5.515625 Z M 7.90625 -5.515625 "/></g></g></g><g fill="#0f4d79" fill-opacity="1"><g transform="translate(39.536581, 44.078343)"><g><path d="M 11.703125 0 L 10.1875 0 L 10.1875 -6.140625 L 3.3125 -6.140625 L 3.3125 0 L 1.796875 0 L 1.796875 -13.046875 L 3.3125 -13.046875 L 3.3125 -7.5 L 10.1875 -7.5 L 10.1875 -13.046875 L 11.703125 -13.046875 Z M 11.703125 0 "/></g></g></g><g fill="#0f4d79" fill-opacity="1"><g transform="translate(64.657075, 44.078343)"><g><path d="M 13.125 -6.546875 C 13.125 -4.453125 12.59375 -2.804688 11.53125 -1.609375 C 10.476562 -0.421875 9.007812 0.171875 7.125 0.171875 C 5.207031 0.171875 3.722656 -0.410156 2.671875 -1.578125 C 1.628906 -2.753906 1.109375 -4.414062 1.109375 -6.5625 C 1.109375 -8.6875 1.632812 -10.332031 2.6875 -11.5 C 3.738281 -12.664062 5.226562 -13.25 7.15625 -13.25 C 9.03125 -13.25 10.492188 -12.65625 11.546875 -11.46875 C 12.597656 -10.28125 13.125 -8.640625 13.125 -6.546875 Z M 2.71875 -6.546875 C 2.71875 -4.773438 3.09375 -3.429688 3.84375 -2.515625 C 4.601562 -1.609375 5.695312 -1.15625 7.125 -1.15625 C 8.570312 -1.15625 9.664062 -1.609375 10.40625 -2.515625 C 11.144531 -3.429688 11.515625 -4.773438 11.515625 -6.546875 C 11.515625 -8.296875 11.144531 -9.625 10.40625 -10.53125 C 9.675781 -11.445312 8.59375 -11.90625 7.15625 -11.90625 C 5.707031 -11.90625 4.601562 -11.445312 3.84375 -10.53125 C 3.09375 -9.613281 2.71875 -8.285156 2.71875 -6.546875 Z M 2.71875 -6.546875 "/></g></g></g><g fill="#0f4d79" fill-opacity="1"><g transform="translate(90.527054, 44.078343)"><g><path d="M 3.3125 -5.421875 L 3.3125 0 L 1.796875 0 L 1.796875 -13.046875 L 5.375 -13.046875 C 6.976562 -13.046875 8.160156 -12.738281 8.921875 -12.125 C 9.679688 -11.519531 10.0625 -10.597656 10.0625 -9.359375 C 10.0625 -7.640625 9.1875 -6.472656 7.4375 -5.859375 L 10.984375 0 L 9.1875 0 L 6.03125 -5.421875 Z M 3.3125 -6.734375 L 5.390625 -6.734375 C 6.460938 -6.734375 7.25 -6.941406 7.75 -7.359375 C 8.25 -7.785156 8.5 -8.425781 8.5 -9.28125 C 8.5 -10.144531 8.242188 -10.765625 7.734375 -11.140625 C 7.222656 -11.523438 6.40625 -11.71875 5.28125 -11.71875 L 3.3125 -11.71875 Z M 3.3125 -6.734375 "/></g></g></g><g fill="#0f4d79" fill-opacity="1"><g transform="translate(113.461546, 44.078343)"><g><path d="M 10 0 L 8.375 -4.15625 L 3.140625 -4.15625 L 1.53125 0 L 0 0 L 5.15625 -13.109375 L 6.4375 -13.109375 L 11.5625 0 Z M 7.90625 -5.515625 L 6.375 -9.5625 C 6.1875 -10.070312 5.988281 -10.695312 5.78125 -11.4375 C 5.644531 -10.875 5.457031 -10.25 5.21875 -9.5625 L 3.671875 -5.515625 Z M 7.90625 -5.515625 "/></g></g></g><g fill="#0f4d79" fill-opacity="1"><g transform="translate(136.663717, 44.078343)"><g/></g></g><g fill="#0f4d79" fill-opacity="1"><g transform="translate(153.049134, 44.078343)"><g><path d="M 9.0625 0 L 1.796875 0 L 1.796875 -13.046875 L 9.0625 -13.046875 L 9.0625 -11.703125 L 3.3125 -11.703125 L 3.3125 -7.5 L 8.71875 -7.5 L 8.71875 -6.15625 L 3.3125 -6.15625 L 3.3125 -1.359375 L 9.0625 -1.359375 Z M 9.0625 0 "/></g></g></g><g fill="#0f4d79" fill-opacity="1"><g transform="translate(174.85048, 44.078343)"><g><path d="M 9.15625 -3.46875 C 9.15625 -2.320312 8.738281 -1.425781 7.90625 -0.78125 C 7.070312 -0.144531 5.941406 0.171875 4.515625 0.171875 C 2.972656 0.171875 1.785156 -0.0234375 0.953125 -0.421875 L 0.953125 -1.890625 C 1.484375 -1.660156 2.0625 -1.476562 2.6875 -1.34375 C 3.320312 -1.21875 3.953125 -1.15625 4.578125 -1.15625 C 5.585938 -1.15625 6.347656 -1.34375 6.859375 -1.71875 C 7.367188 -2.101562 7.625 -2.640625 7.625 -3.328125 C 7.625 -3.785156 7.53125 -4.15625 7.34375 -4.4375 C 7.164062 -4.726562 6.863281 -4.992188 6.4375 -5.234375 C 6.007812 -5.484375 5.363281 -5.757812 4.5 -6.0625 C 3.28125 -6.5 2.410156 -7.015625 1.890625 -7.609375 C 1.367188 -8.203125 1.109375 -8.976562 1.109375 -9.9375 C 1.109375 -10.945312 1.488281 -11.75 2.25 -12.34375 C 3.007812 -12.9375 4.007812 -13.234375 5.25 -13.234375 C 6.539062 -13.234375 7.734375 -13 8.828125 -12.53125 L 8.359375 -11.203125 C 7.273438 -11.648438 6.226562 -11.875 5.21875 -11.875 C 4.414062 -11.875 3.785156 -11.703125 3.328125 -11.359375 C 2.878906 -11.015625 2.65625 -10.535156 2.65625 -9.921875 C 2.65625 -9.472656 2.738281 -9.101562 2.90625 -8.8125 C 3.070312 -8.519531 3.351562 -8.253906 3.75 -8.015625 C 4.144531 -7.773438 4.75 -7.507812 5.5625 -7.21875 C 6.925781 -6.726562 7.863281 -6.203125 8.375 -5.640625 C 8.894531 -5.085938 9.15625 -4.363281 9.15625 -3.46875 Z M 9.15625 -3.46875 "/></g></g></g><g fill="#0f4d79" fill-opacity="1"><g transform="translate(196.517989, 44.078343)"><g><path d="M 5.8125 0 L 4.296875 0 L 4.296875 -11.703125 L 0.15625 -11.703125 L 0.15625 -13.046875 L 9.9375 -13.046875 L 9.9375 -11.703125 L 5.8125 -11.703125 Z M 5.8125 0 "/></g></g></g><g fill="#0f4d79" fill-opacity="1"><g transform="translate(218.2658, 44.078343)"><g><path d="M 10 0 L 8.375 -4.15625 L 3.140625 -4.15625 L 1.53125 0 L 0 0 L 5.15625 -13.109375 L 6.4375 -13.109375 L 11.5625 0 Z M 7.90625 -5.515625 L 6.375 -9.5625 C 6.1875 -10.070312 5.988281 -10.695312 5.78125 -11.4375 C 5.644531 -10.875 5.457031 -10.25 5.21875 -9.5625 L 3.671875 -5.515625 Z M 4.703125 -14.3125 C 4.984375 -14.6875 5.285156 -15.132812 5.609375 -15.65625 C 5.941406 -16.175781 6.207031 -16.628906 6.40625 -17.015625 L 8.203125 -17.015625 L 8.203125 -16.828125 C 7.941406 -16.441406 7.550781 -15.96875 7.03125 -15.40625 C 6.507812 -14.84375 6.0625 -14.40625 5.6875 -14.09375 L 4.703125 -14.09375 Z M 4.703125 -14.3125 "/></g></g></g><g fill="#0f4d79" fill-opacity="1"><g transform="translate(241.467971, 44.078343)"><g><path d="M 9.15625 -3.46875 C 9.15625 -2.320312 8.738281 -1.425781 7.90625 -0.78125 C 7.070312 -0.144531 5.941406 0.171875 4.515625 0.171875 C 2.972656 0.171875 1.785156 -0.0234375 0.953125 -0.421875 L 0.953125 -1.890625 C 1.484375 -1.660156 2.0625 -1.476562 2.6875 -1.34375 C 3.320312 -1.21875 3.953125 -1.15625 4.578125 -1.15625 C 5.585938 -1.15625 6.347656 -1.34375 6.859375 -1.71875 C 7.367188 -2.101562 7.625 -2.640625 7.625 -3.328125 C 7.625 -3.785156 7.53125 -4.15625 7.34375 -4.4375 C 7.164062 -4.726562 6.863281 -4.992188 6.4375 -5.234375 C 6.007812 -5.484375 5.363281 -5.757812 4.5 -6.0625 C 3.28125 -6.5 2.410156 -7.015625 1.890625 -7.609375 C 1.367188 -8.203125 1.109375 -8.976562 1.109375 -9.9375 C 1.109375 -10.945312 1.488281 -11.75 2.25 -12.34375 C 3.007812 -12.9375 4.007812 -13.234375 5.25 -13.234375 C 6.539062 -13.234375 7.734375 -13 8.828125 -12.53125 L 8.359375 -11.203125 C 7.273438 -11.648438 6.226562 -11.875 5.21875 -11.875 C 4.414062 -11.875 3.785156 -11.703125 3.328125 -11.359375 C 2.878906 -11.015625 2.65625 -10.535156 2.65625 -9.921875 C 2.65625 -9.472656 2.738281 -9.101562 2.90625 -8.8125 C 3.070312 -8.519531 3.351562 -8.253906 3.75 -8.015625 C 4.144531 -7.773438 4.75 -7.507812 5.5625 -7.21875 C 6.925781 -6.726562 7.863281 -6.203125 8.375 -5.640625 C 8.894531 -5.085938 9.15625 -4.363281 9.15625 -3.46875 Z M 9.15625 -3.46875 "/></g></g></g><g fill="#0f4d79" fill-opacity="1"><g transform="translate(263.135481, 44.078343)"><g/></g></g><g fill="#0f4d79" fill-opacity="1"><g transform="translate(279.520897, 44.078343)"><g><path d="M 10 0 L 8.375 -4.15625 L 3.140625 -4.15625 L 1.53125 0 L 0 0 L 5.15625 -13.109375 L 6.4375 -13.109375 L 11.5625 0 Z M 7.90625 -5.515625 L 6.375 -9.5625 C 6.1875 -10.070312 5.988281 -10.695312 5.78125 -11.4375 C 5.644531 -10.875 5.457031 -10.25 5.21875 -9.5625 L 3.671875 -5.515625 Z M 7.90625 -5.515625 "/></g></g></g><g fill="#0f4d79" fill-opacity="1"><g transform="translate(302.723068, 44.078343)"><g><path d="M 13.125 -6.546875 C 13.125 -4.867188 12.785156 -3.476562 12.109375 -2.375 C 11.441406 -1.269531 10.492188 -0.519531 9.265625 -0.125 L 12.375 3.109375 L 10.171875 3.109375 L 7.625 0.15625 L 7.125 0.171875 C 5.207031 0.171875 3.722656 -0.410156 2.671875 -1.578125 C 1.628906 -2.753906 1.109375 -4.414062 1.109375 -6.5625 C 1.109375 -8.6875 1.632812 -10.332031 2.6875 -11.5 C 3.738281 -12.664062 5.226562 -13.25 7.15625 -13.25 C 9.03125 -13.25 10.492188 -12.65625 11.546875 -11.46875 C 12.597656 -10.28125 13.125 -8.640625 13.125 -6.546875 Z M 2.71875 -6.546875 C 2.71875 -4.773438 3.09375 -3.429688 3.84375 -2.515625 C 4.601562 -1.609375 5.695312 -1.15625 7.125 -1.15625 C 8.570312 -1.15625 9.664062 -1.609375 10.40625 -2.515625 C 11.144531 -3.429688 11.515625 -4.773438 11.515625 -6.546875 C 11.515625 -8.296875 11.144531 -9.625 10.40625 -10.53125 C 9.675781 -11.445312 8.59375 -11.90625 7.15625 -11.90625 C 5.707031 -11.90625 4.601562 -11.445312 3.84375 -10.53125 C 3.09375 -9.613281 2.71875 -8.285156 2.71875 -6.546875 Z M 2.71875 -6.546875 "/></g></g></g><g fill="#0f4d79" fill-opacity="1"><g transform="translate(328.593054, 44.078343)"><g><path d="M 11.65625 -13.046875 L 11.65625 -4.609375 C 11.65625 -3.117188 11.203125 -1.945312 10.296875 -1.09375 C 9.398438 -0.25 8.164062 0.171875 6.59375 0.171875 C 5.019531 0.171875 3.800781 -0.253906 2.9375 -1.109375 C 2.082031 -1.960938 1.65625 -3.140625 1.65625 -4.640625 L 1.65625 -13.046875 L 3.171875 -13.046875 L 3.171875 -4.53125 C 3.171875 -3.445312 3.46875 -2.613281 4.0625 -2.03125 C 4.664062 -1.445312 5.539062 -1.15625 6.6875 -1.15625 C 7.789062 -1.15625 8.640625 -1.445312 9.234375 -2.03125 C 9.828125 -2.613281 10.125 -3.453125 10.125 -4.546875 L 10.125 -13.046875 Z M 11.65625 -13.046875 "/></g></g></g><g fill="#0f4d79" fill-opacity="1"><g transform="translate(353.535103, 44.078343)"><g><path d="M 1.796875 0 L 1.796875 -13.046875 L 3.3125 -13.046875 L 3.3125 0 Z M 1.609375 -14.3125 C 1.890625 -14.6875 2.191406 -15.132812 2.515625 -15.65625 C 2.847656 -16.175781 3.113281 -16.628906 3.3125 -17.015625 L 5.109375 -17.015625 L 5.109375 -16.828125 C 4.847656 -16.441406 4.457031 -15.96875 3.9375 -15.40625 C 3.414062 -14.84375 2.96875 -14.40625 2.59375 -14.09375 L 1.609375 -14.09375 Z M 1.609375 -14.3125 "/></g></g></g></svg>