<svg width="240" height="67" xmlns="http://www.w3.org/2000/svg" version="1.0" preserveAspectRatio="xMidYMid meet" zoomAndPan="magnify">
 <defs>
  <g id="svg_1"/>
  <filter id="svg_84_blur">
   <feGaussianBlur stdDeviation="0.1" in="SourceGraphic"/>
  </filter>
 </defs>
 <g>
  <title>Layer 1</title>
  <g id="svg_46" fill="#0f4d79">
   <g id="svg_47">
    <g id="svg_48"/>
   </g>
  </g>
  <g id="svg_69" fill="#0f4d79">
   <g id="svg_70">
    <g id="svg_71"/>
   </g>
  </g>
  <g filter="url(#svg_84_blur)" id="svg_2" fill="#0f4d79">
   <g id="svg_90">
    <g id="svg_89">
     <path id="svg_88" d="m33.82632,27.89227l0,2.07422l-24.92187,0c0.125,8.91797 4.52344,10.44531 11.78906,10.8125c4.21485,0 8.1875,0.0625 12.09766,-2.01563l0.12109,7.57422c-3.97265,1.71094 -8.125,2.56641 -12.40234,2.56641c-10.625,-0.36719 -17.34375,-6.66016 -17.34375,-17.22656c0.42578,-10.9336 6.35156,-17.83594 16.42969,-17.83594c8.91796,0.36719 13.5,4.51953 14.23046,14.05078zm-24.30859,-2.6875l19.54688,-0.0625c-0.61329,-3.72656 -4.03125,-8.42969 -9.46875,-8.42969c-6.10938,0 -10.07813,4.46094 -10.07813,8.49219zm0,0"/>
    </g>
   </g>
  </g>
  <g filter="url(#svg_84_blur)" id="svg_6" fill="#0f4d79">
   <g id="svg_94">
    <g id="svg_93">
     <path id="svg_92" d="m76.213,27.89227l0.85547,20.15625l-7.82031,0l1.16406,-20.28125c0,-6.35156 -1.89453,-9.46484 -6.78125,-9.46484c-6.71875,0 -9.89453,4.03125 -9.89453,10.5664l0.91406,19.17969l-7.63281,0l0.91406,-33.71875l5.49609,0l0,4.03125c2.62891,-2.07422 6.17188,-4.51953 10.8125,-4.51953c7.63672,0 11.54688,4.82812 11.97266,14.05078zm0,0"/>
    </g>
   </g>
  </g>
  <g filter="url(#svg_84_blur)" id="svg_10" fill="#0f4d79">
   <g id="svg_98">
    <g id="svg_97">
     <path id="svg_96" d="m104.91719,2.23602l4.88672,0.61328l0,4.51953l-4.94922,-0.55078c-2.75,0 -3.72656,0.73438 -3.72656,4.88672l0.2461,2.93359l8.73437,0l0,5.4336l-8.73437,0l0.91406,27.97656l-7.87891,0l0.85547,-27.97656l-4.94531,0l0,-5.4336l4.94531,0l0.30469,-2.32422c0,-7.44921 4.21484,-10.07812 9.34765,-10.07812zm0,0"/>
    </g>
   </g>
  </g>
  <g filter="url(#svg_84_blur)" id="svg_14" fill="#0f4d79">
   <g id="svg_102">
    <g id="svg_101">
     <path id="svg_100" d="m138.68924,13.84149c9.53125,0 15.33203,6.53515 15.33203,17.53125c0,10.93359 -5.80078,17.53125 -15.33203,17.53125c-9.58984,0 -15.32812,-6.59766 -15.32812,-17.53125c0,-10.9961 5.73828,-17.53125 15.32812,-17.53125zm0,4.03125c-5.86328,0 -9.52734,4.76562 -9.52734,12.52344c0,7.8164 3.60547,9.03906 9.52734,9.03906c5.86719,0 9.53125,-1.28125 9.53125,-9.03906c0,-7.63672 -3.66406,-12.52344 -9.53125,-12.52344zm0,0"/>
    </g>
   </g>
  </g>
  <g filter="url(#svg_84_blur)" id="svg_18" fill="#0f4d79">
   <g id="svg_106">
    <g id="svg_105">
     <path id="svg_104" d="m193.65793,15.91961l0,4.82422c-3.11328,-1.71094 -6.23047,-2.5664 -9.40625,-2.5664c-7.14453,0 -10.93359,5.07031 -10.93359,13.19531c0.55078,5.74219 3.54297,7.69531 10.6914,8.0625c3.17578,0 6.41407,0.42969 9.52735,-1.28125l0.12109,8.61328c-3.05078,1.40234 -6.28906,2.13672 -10.01562,2.13672c-10.01954,0 -16.42969,-6.78125 -16.42969,-17.53125c0,-10.8711 6.41015,-17.53125 16.79687,-17.53125c3.35938,0 6.65625,0.67187 9.64844,2.07812zm0,0"/>
    </g>
   </g>
  </g>
  <g filter="url(#svg_84_blur)" id="svg_22" fill="#0f4d79">
   <g id="svg_110">
    <g id="svg_109">
     <path id="svg_108" d="m222.17822,13.84149c9.53125,0 15.33203,6.53515 15.33203,17.53125c0,10.93359 -5.80078,17.53125 -15.33203,17.53125c-9.58984,0 -15.32812,-6.59766 -15.32812,-17.53125c0,-10.9961 5.73828,-17.53125 15.32812,-17.53125zm0,4.03125c-5.86328,0 -9.52734,4.76562 -9.52734,12.52344c0,7.8164 3.60547,9.03906 9.52734,9.03906c5.86719,0 9.53125,-1.28125 9.53125,-9.03906c0,-7.63672 -3.66406,-12.52344 -9.53125,-12.52344zm0,0"/>
    </g>
   </g>
  </g>
  <g filter="url(#svg_84_blur)" id="svg_26" fill="#0f4d79">
   <g id="svg_114">
    <g id="svg_113">
     <path id="svg_112" d="m47.96735,65.1282l-0.73437,-1.85938l-2.35938,0l-0.71875,1.85938l-0.6875,0l2.3125,-5.89063l0.57813,0l2.3125,5.89063l-0.70313,0zm-0.95312,-2.48438l-0.67188,-1.8125c-0.09375,-0.22656 -0.1875,-0.50781 -0.28125,-0.84375c-0.05469,0.25 -0.13672,0.53125 -0.25,0.84375l-0.6875,1.8125l1.89063,0zm0,0"/>
    </g>
   </g>
  </g>
  <g filter="url(#svg_84_blur)" id="svg_30" fill="#0f4d79">
   <g id="svg_118">
    <g id="svg_117">
     <path id="svg_116" d="m59.15417,65.1282l-0.6875,0l0,-2.76563l-3.09375,0l0,2.76563l-0.67188,0l0,-5.85938l0.67188,0l0,2.48438l3.09375,0l0,-2.48438l0.6875,0l0,5.85938zm0,0"/>
    </g>
   </g>
  </g>
  <g filter="url(#svg_84_blur)" id="svg_34" fill="#0f4d79">
   <g id="svg_122">
    <g id="svg_121">
     <path id="svg_120" d="m71.07759,62.1907c0,0.9375 -0.24219,1.67969 -0.71875,2.21875c-0.48047,0.53125 -1.14062,0.79688 -1.98437,0.79688c-0.86719,0 -1.53125,-0.25782 -2,-0.78126c-0.46875,-0.53125 -0.70313,-1.28125 -0.70313,-2.25c0,-0.94531 0.23438,-1.67968 0.70313,-2.20312c0.47656,-0.53125 1.14843,-0.79688 2.01562,-0.79688c0.84375,0 1.5,0.26563 1.96875,0.79688c0.47656,0.53125 0.71875,1.27344 0.71875,2.21875zm-4.6875,0c0,0.79297 0.16406,1.39844 0.5,1.8125c0.34375,0.40625 0.83594,0.60937 1.48438,0.60937c0.65625,0 1.14453,-0.20312 1.46875,-0.60937c0.33203,-0.41406 0.5,-1.01953 0.5,-1.8125c0,-0.78906 -0.16797,-1.39063 -0.5,-1.79688c-0.32422,-0.40625 -0.8086,-0.60937 -1.45313,-0.60937c-0.65625,0 -1.15625,0.20312 -1.5,0.60937c-0.33594,0.40625 -0.5,1.00782 -0.5,1.79688zm0,0"/>
    </g>
   </g>
  </g>
  <g filter="url(#svg_84_blur)" id="svg_38" fill="#0f4d79">
   <g id="svg_126">
    <g id="svg_125">
     <path id="svg_124" d="m78.27517,62.6907l0,2.4375l-0.67188,0l0,-5.85938l1.60938,0c0.71875,0 1.25,0.13672 1.59375,0.40625c0.34375,0.27344 0.51562,0.6875 0.51562,1.25c0,0.77344 -0.39844,1.29297 -1.1875,1.5625l1.59375,2.64063l-0.79687,0l-1.42188,-2.4375l-1.23437,0zm0,-0.59375l0.9375,0c0.47656,0 0.83203,-0.09375 1.0625,-0.28125c0.22656,-0.1875 0.34375,-0.47266 0.34375,-0.85938c0,-0.38281 -0.11719,-0.66015 -0.34375,-0.82812c-0.23047,-0.17578 -0.60157,-0.26563 -1.10938,-0.26563l-0.89062,0l0,2.23438zm0,0"/>
    </g>
   </g>
  </g>
  <g filter="url(#svg_84_blur)" id="svg_42" fill="#0f4d79">
   <g id="svg_130">
    <g id="svg_129">
     <path id="svg_128" d="m91.59175,65.1282l-0.73437,-1.85938l-2.35938,0l-0.71875,1.85938l-0.6875,0l2.3125,-5.89063l0.57813,0l2.3125,5.89063l-0.70313,0zm-0.95312,-2.48438l-0.67188,-1.8125c-0.09375,-0.22656 -0.1875,-0.50781 -0.28125,-0.84375c-0.05469,0.25 -0.13672,0.53125 -0.25,0.84375l-0.6875,1.8125l1.89063,0zm0,0"/>
    </g>
   </g>
  </g>
  <g filter="url(#svg_84_blur)" id="svg_49" fill="#0f4d79">
   <g id="svg_134">
    <g id="svg_133">
     <path id="svg_132" d="m108.95054,65.1282l-3.26563,0l0,-5.85938l3.26563,0l0,0.59375l-2.59375,0l0,1.89063l2.4375,0l0,0.60937l-2.4375,0l0,2.15625l2.59375,0l0,0.60938zm0,0"/>
    </g>
   </g>
  </g>
  <g filter="url(#svg_84_blur)" id="svg_53" fill="#0f4d79">
   <g id="svg_138">
    <g id="svg_137">
     <path id="svg_136" d="m118.78943,63.5657c0,0.52344 -0.1875,0.92969 -0.5625,1.21875c-0.375,0.28125 -0.88672,0.42188 -1.53125,0.42188c-0.69922,0 -1.23437,-0.08594 -1.60937,-0.26563l0,-0.65625c0.23828,0.10547 0.5,0.1875 0.78125,0.25c0.28906,0.05469 0.57812,0.07812 0.85937,0.07812c0.44531,0 0.78516,-0.08203 1.01563,-0.25c0.22656,-0.17578 0.34375,-0.42187 0.34375,-0.73437c0,-0.19531 -0.04297,-0.35938 -0.125,-0.48438c-0.07422,-0.13281 -0.21094,-0.2539 -0.40625,-0.35937c-0.1875,-0.11328 -0.48047,-0.24219 -0.875,-0.39063c-0.54297,-0.1875 -0.9336,-0.41406 -1.17188,-0.6875c-0.23047,-0.26953 -0.34375,-0.61718 -0.34375,-1.04687c0,-0.45703 0.16406,-0.81641 0.5,-1.07813c0.34375,-0.26953 0.79688,-0.40625 1.35938,-0.40625c0.58203,0 1.11718,0.10938 1.60937,0.32813l-0.21875,0.59375c-0.48047,-0.20703 -0.94922,-0.3125 -1.40625,-0.3125c-0.36719,0 -0.65234,0.07812 -0.85937,0.23437c-0.19922,0.15625 -0.29688,0.3711 -0.29688,0.64063c0,0.21094 0.03516,0.38281 0.10938,0.51562c0.08203,0.125 0.21093,0.2461 0.39062,0.35938c0.17578,0.10547 0.44531,0.21875 0.8125,0.34375c0.61328,0.21875 1.03516,0.46094 1.26563,0.71875c0.23828,0.25 0.35937,0.57422 0.35937,0.96875zm0,0"/>
    </g>
   </g>
  </g>
  <g filter="url(#svg_84_blur)" id="svg_57" fill="#0f4d79">
   <g id="svg_142">
    <g id="svg_141">
     <path id="svg_140" d="m127.00571,65.1282l-0.67188,0l0,-5.26563l-1.85937,0l0,-0.59375l4.39062,0l0,0.59375l-1.85937,0l0,5.26563zm0,0"/>
    </g>
   </g>
  </g>
  <g filter="url(#svg_84_blur)" id="svg_61" fill="#0f4d79">
   <g id="svg_146">
    <g id="svg_145">
     <path id="svg_144" d="m138.66431,65.1282l-0.73437,-1.85938l-2.35938,0l-0.71875,1.85938l-0.6875,0l2.3125,-5.89063l0.57813,0l2.3125,5.89063l-0.70313,0zm-0.95312,-2.48438l-0.67188,-1.8125c-0.09375,-0.22656 -0.1875,-0.50781 -0.28125,-0.84375c-0.05469,0.25 -0.13672,0.53125 -0.25,0.84375l-0.6875,1.8125l1.89063,0zm-1.4375,-3.95312c0.125,-0.16406 0.25781,-0.36328 0.40625,-0.59375c0.15625,-0.23828 0.27343,-0.44531 0.35937,-0.625l0.8125,0l0,0.07812c-0.11719,0.17969 -0.29297,0.39844 -0.53125,0.65625c-0.23047,0.25 -0.43359,0.44532 -0.60937,0.57813l-0.4375,0l0,-0.09375zm0,0"/>
    </g>
   </g>
  </g>
  <g filter="url(#svg_84_blur)" id="svg_65" fill="#0f4d79">
   <g id="svg_150">
    <g id="svg_149">
     <path id="svg_148" d="m148.71051,63.5657c0,0.52344 -0.1875,0.92969 -0.5625,1.21875c-0.375,0.28125 -0.88672,0.42188 -1.53125,0.42188c-0.69922,0 -1.23437,-0.08594 -1.60937,-0.26563l0,-0.65625c0.23828,0.10547 0.5,0.1875 0.78125,0.25c0.28906,0.05469 0.57812,0.07812 0.85937,0.07812c0.44531,0 0.78516,-0.08203 1.01563,-0.25c0.22656,-0.17578 0.34375,-0.42187 0.34375,-0.73437c0,-0.19531 -0.04297,-0.35938 -0.125,-0.48438c-0.07422,-0.13281 -0.21094,-0.2539 -0.40625,-0.35937c-0.1875,-0.11328 -0.48047,-0.24219 -0.875,-0.39063c-0.54297,-0.1875 -0.9336,-0.41406 -1.17188,-0.6875c-0.23047,-0.26953 -0.34375,-0.61718 -0.34375,-1.04687c0,-0.45703 0.16406,-0.81641 0.5,-1.07813c0.34375,-0.26953 0.79688,-0.40625 1.35938,-0.40625c0.58203,0 1.11718,0.10938 1.60937,0.32813l-0.21875,0.59375c-0.48047,-0.20703 -0.94922,-0.3125 -1.40625,-0.3125c-0.36719,0 -0.65234,0.07812 -0.85937,0.23437c-0.19922,0.15625 -0.29688,0.3711 -0.29688,0.64063c0,0.21094 0.03516,0.38281 0.10938,0.51562c0.08203,0.125 0.21093,0.2461 0.39062,0.35938c0.17578,0.10547 0.44531,0.21875 0.8125,0.34375c0.61328,0.21875 1.03516,0.46094 1.26563,0.71875c0.23828,0.25 0.35937,0.57422 0.35937,0.96875zm0,0"/>
    </g>
   </g>
  </g>
  <g filter="url(#svg_84_blur)" id="svg_72" fill="#0f4d79">
   <g id="svg_154">
    <g id="svg_153">
     <path id="svg_152" d="m166.17688,65.1282l-0.73437,-1.85938l-2.35938,0l-0.71875,1.85938l-0.6875,0l2.3125,-5.89063l0.57813,0l2.3125,5.89063l-0.70313,0zm-0.95312,-2.48438l-0.67188,-1.8125c-0.09375,-0.22656 -0.1875,-0.50781 -0.28125,-0.84375c-0.05469,0.25 -0.13672,0.53125 -0.25,0.84375l-0.6875,1.8125l1.89063,0zm0,0"/>
    </g>
   </g>
  </g>
  <g filter="url(#svg_84_blur)" id="svg_76" fill="#0f4d79">
   <g id="svg_158">
    <g id="svg_157">
     <path id="svg_156" d="m178.00434,62.1907c0,0.75 -0.15234,1.375 -0.45312,1.875c-0.30469,0.49219 -0.73047,0.82422 -1.28125,1l1.39062,1.45313l-0.98437,0l-1.15625,-1.3125l-0.21875,0c-0.86719,0 -1.53125,-0.25782 -2,-0.78126c-0.46875,-0.53125 -0.70313,-1.28125 -0.70313,-2.25c0,-0.94531 0.23438,-1.67968 0.70313,-2.20312c0.47656,-0.53125 1.14843,-0.79688 2.01562,-0.79688c0.84375,0 1.5,0.26563 1.96875,0.79688c0.47656,0.53125 0.71875,1.27344 0.71875,2.21875zm-4.6875,0c0,0.79297 0.16406,1.39844 0.5,1.8125c0.34375,0.40625 0.83594,0.60937 1.48438,0.60937c0.65625,0 1.14453,-0.20312 1.46875,-0.60937c0.33203,-0.41406 0.5,-1.01953 0.5,-1.8125c0,-0.78906 -0.16797,-1.39063 -0.5,-1.79688c-0.32422,-0.40625 -0.8086,-0.60937 -1.45313,-0.60937c-0.65625,0 -1.15625,0.20312 -1.5,0.60937c-0.33594,0.40625 -0.5,1.00782 -0.5,1.79688zm0,0"/>
    </g>
   </g>
  </g>
  <g filter="url(#svg_84_blur)" id="svg_80" fill="#0f4d79">
   <g id="svg_162">
    <g id="svg_161">
     <path id="svg_160" d="m188.95191,59.26882l0,3.78125c0,0.67969 -0.20313,1.21094 -0.60938,1.59375c-0.39844,0.375 -0.94922,0.56251 -1.65625,0.56251c-0.71094,0 -1.25781,-0.19141 -1.64062,-0.57813c-0.38672,-0.38281 -0.57813,-0.91406 -0.57813,-1.59375l0,-3.76563l0.67188,0l0,3.82813c0,0.49219 0.13281,0.86719 0.40625,1.125c0.26953,0.26172 0.66406,0.39062 1.1875,0.39062c0.48828,0 0.86718,-0.1289 1.14062,-0.39062c0.26953,-0.26953 0.40625,-0.64844 0.40625,-1.14063l0,-3.8125l0.67188,0zm0,0"/>
    </g>
   </g>
  </g>
  <g filter="url(#svg_84_blur)" id="svg_84" fill="#0f4d79">
   <g id="svg_166">
    <g id="svg_165">
     <path id="svg_164" d="m195.73267,65.1282l0,-5.85938l0.67188,0l0,5.85938l-0.67188,0zm-0.09375,-6.4375c0.125,-0.16406 0.25781,-0.36328 0.40625,-0.59375c0.15625,-0.23828 0.27344,-0.44531 0.35938,-0.625l0.8125,0l0,0.07812c-0.11719,0.17969 -0.29297,0.39844 -0.53125,0.65625c-0.23047,0.25 -0.4336,0.44532 -0.60938,0.57813l-0.4375,0l0,-0.09375zm0,0"/>
    </g>
   </g>
  </g>
 </g>
</svg>