<svg width="305" height="26" viewBox="0 0 305 26" fill="none" xmlns="http://www.w3.org/2000/svg">
<path fill-rule="evenodd" clip-rule="evenodd" d="M17.029 0.221258C-0.0575737 0.717749 -1.99198 1.41274 2.84384 5.08677C8.16319 9.15799 19.2857 10.1513 105.686 11.8393C5.9066 13.0308 -3.28162 14.421 0.748236 19.088C5.90645 24.9466 38.9513 24.3508 199.823 24.5494C248.02 24.6487 274.778 26.3368 288.479 25.9396C307.5 25.3438 302.826 20.7761 294.927 18.6908L299.279 18.1943C310.724 16.9034 303.793 8.7611 289.124 6.37795C276.229 4.29268 202.079 2.10792 130.671 1.71073C36.2111 1.31354 36.5335 -0.37453 17.029 0.221258Z" fill="#5CBFCC" fill-opacity="0.3"/>
</svg>
