<svg width="1440" height="333" viewBox="0 0 1440 333" fill="none" xmlns="http://www.w3.org/2000/svg">
<path fill-rule="evenodd" clip-rule="evenodd" d="M0 106.746C0 106.746 51.573 119.109 117.303 90C183.034 60.8912 232.045 5.00001 310.449 30C388.854 55 468.708 147.77 558.708 126C648.708 104.23 717.978 0 789.775 0C861.573 0 976.348 85.7456 1050.17 106.746C1123.99 127.746 1440 162.5 1440 162.5V333H1380.34C1319.66 333 1200.34 333 1080 333C959.663 333 840.337 333 720 333C599.663 333 480.337 333 360 333C239.663 333 120.337 333 59.6629 333H0V106.746Z" fill="#DBEDF2"/>
</svg>
