<svg width="1440" height="144" viewBox="0 0 1440 144" fill="none" xmlns="http://www.w3.org/2000/svg">
<path fill-rule="evenodd" clip-rule="evenodd" d="M0 61.0078V0C0 0 81.141 83.0104 328.07 83.0104C574.998 83.0104 596.461 47.0156 708.73 61.0078C821 75 1052.48 86.7077 1087.89 83.0104C1164.52 75.0095 1270.21 23.5031 1335.82 23.5031C1401.43 23.5031 1440 46.5058 1440 46.5058V75.0095V144H1375.39C1315.28 144 1197.08 144 1077.87 144C958.664 144 840.459 144 721.252 144C602.045 144 483.84 144 364.633 144C245.426 144 127.221 144 67.1165 144H0V61.0078Z" fill="#749DA3"/>
</svg>
