<svg width="1440" height="209" viewBox="0 0 1440 209" fill="none" xmlns="http://www.w3.org/2000/svg">
<path fill-rule="evenodd" clip-rule="evenodd" d="M0 107.246C0 107.246 51.573 119.609 117.303 90.5C183.034 61.3912 232.045 5.50001 310.449 30.5C388.854 55.5 468.708 148.27 558.708 126.5C648.708 104.73 717.978 0.5 789.775 0.5C861.573 0.5 976.348 86.2456 1050.17 107.246C1123.99 128.246 1440 163 1440 163V208.5H1380.34C1319.66 208.5 1200.34 208.5 1080 208.5C959.663 208.5 840.337 208.5 720 208.5C599.663 208.5 480.337 208.5 360 208.5C239.663 208.5 120.337 208.5 59.6629 208.5H0V107.246Z" fill="#DBEDF2"/>
</svg>
