<svg xmlns="http://www.w3.org/2000/svg" xmlns:xlink="http://www.w3.org/1999/xlink" width="500" zoomAndPan="magnify" viewBox="0 0 375 74.999997" height="100" preserveAspectRatio="xMidYMid meet" version="1.0"><defs><g/><clipPath id="6146c09f68"><path d="M 22.441406 8.488281 L 58.441406 8.488281 L 58.441406 44.484375 L 22.441406 44.484375 Z M 22.441406 8.488281 " clip-rule="nonzero"/></clipPath><clipPath id="9c7f4a8653"><path d="M 9 34 L 26 34 L 26 64 L 9 64 Z M 9 34 " clip-rule="nonzero"/></clipPath><clipPath id="db9f5a17b9"><path d="M 7.5 35.125 L 25.542969 30.015625 L 34.328125 61.046875 L 16.289062 66.15625 Z M 7.5 35.125 " clip-rule="nonzero"/></clipPath><clipPath id="6866d70074"><path d="M 7.5 35.125 L 45.746094 24.292969 L 54.535156 55.324219 L 16.289062 66.15625 Z M 7.5 35.125 " clip-rule="nonzero"/></clipPath><clipPath id="507acd7d10"><path d="M 15 45 L 34 45 L 34 62 L 15 62 Z M 15 45 " clip-rule="nonzero"/></clipPath><clipPath id="74b94f0336"><path d="M 7.5 35.125 L 25.542969 30.015625 L 34.328125 61.046875 L 16.289062 66.15625 Z M 7.5 35.125 " clip-rule="nonzero"/></clipPath><clipPath id="1b13c67093"><path d="M 7.5 35.125 L 45.746094 24.292969 L 54.535156 55.324219 L 16.289062 66.15625 Z M 7.5 35.125 " clip-rule="nonzero"/></clipPath><clipPath id="cc54675ba4"><path d="M 54 34 L 71 34 L 71 64 L 54 64 Z M 54 34 " clip-rule="nonzero"/></clipPath><clipPath id="cf5240b1ba"><path d="M 53.382812 29.664062 L 72.882812 35.132812 L 64.171875 66.183594 L 44.675781 60.714844 Z M 53.382812 29.664062 " clip-rule="nonzero"/></clipPath><clipPath id="7cbf6155c8"><path d="M 34.476562 24.359375 L 72.75 35.09375 L 64.042969 66.148438 L 25.769531 55.414062 Z M 34.476562 24.359375 " clip-rule="nonzero"/></clipPath><clipPath id="1db4c5c072"><path d="M 46 45 L 65 45 L 65 62 L 46 62 Z M 46 45 " clip-rule="nonzero"/></clipPath><clipPath id="5a138ebad2"><path d="M 53.382812 29.664062 L 72.882812 35.132812 L 64.171875 66.183594 L 44.675781 60.714844 Z M 53.382812 29.664062 " clip-rule="nonzero"/></clipPath><clipPath id="b3064736b6"><path d="M 34.476562 24.359375 L 72.75 35.09375 L 64.042969 66.148438 L 25.769531 55.414062 Z M 34.476562 24.359375 " clip-rule="nonzero"/></clipPath></defs><g fill="#0f4d79" fill-opacity="1"><g transform="translate(81.078649, 64.056547)"><g><path d="M 41.796875 -23.988281 L 41.796875 -21.515625 L 12.140625 -21.515625 C 12.285156 -10.902344 17.515625 -9.085938 26.167969 -8.648438 C 31.183594 -8.648438 35.90625 -8.578125 40.558594 -11.046875 L 40.703125 -2.035156 C 35.980469 0 31.039062 1.019531 25.949219 1.019531 C 13.300781 0.582031 5.304688 -6.90625 5.304688 -19.480469 C 5.816406 -32.492188 12.867188 -40.703125 24.859375 -40.703125 C 35.472656 -40.269531 40.921875 -35.324219 41.796875 -23.988281 Z M 12.867188 -27.183594 L 36.125 -27.257812 C 35.398438 -31.691406 31.328125 -37.289062 24.859375 -37.289062 C 17.589844 -37.289062 12.867188 -31.980469 12.867188 -27.183594 Z M 12.867188 -27.183594 "/></g></g></g><g fill="#0f4d79" fill-opacity="1"><g transform="translate(133.261538, 64.056547)"><g><path d="M 40.050781 -23.988281 L 41.066406 0 L 31.765625 0 L 33.144531 -24.132812 C 33.144531 -31.691406 30.890625 -35.398438 25.078125 -35.398438 C 17.082031 -35.398438 13.300781 -30.601562 13.300781 -22.824219 L 14.390625 0 L 5.304688 0 L 6.394531 -40.125 L 12.9375 -40.125 L 12.9375 -35.324219 C 16.0625 -37.796875 20.28125 -40.703125 25.804688 -40.703125 C 34.890625 -40.703125 39.542969 -34.960938 40.050781 -23.988281 Z M 40.050781 -23.988281 "/></g></g></g><g fill="#0f4d79" fill-opacity="1"><g transform="translate(184.790341, 64.056547)"><g><path d="M 22.679688 -54.515625 L 28.492188 -53.789062 L 28.492188 -48.410156 L 22.605469 -49.0625 C 19.335938 -49.0625 18.171875 -48.191406 18.171875 -43.25 L 18.460938 -39.757812 L 28.855469 -39.757812 L 28.855469 -33.289062 L 18.460938 -33.289062 L 19.554688 0 L 10.175781 0 L 11.195312 -33.289062 L 5.304688 -33.289062 L 5.304688 -39.757812 L 11.195312 -39.757812 L 11.558594 -42.523438 C 11.558594 -51.390625 16.574219 -54.515625 22.679688 -54.515625 Z M 22.679688 -54.515625 "/></g></g></g><g fill="#0f4d79" fill-opacity="1"><g transform="translate(224.109464, 64.056547)"><g><path d="M 23.550781 -40.703125 C 34.890625 -40.703125 41.796875 -32.925781 41.796875 -19.84375 C 41.796875 -6.832031 34.890625 1.019531 23.550781 1.019531 C 12.140625 1.019531 5.304688 -6.832031 5.304688 -19.84375 C 5.304688 -32.925781 12.140625 -40.703125 23.550781 -40.703125 Z M 23.550781 -35.90625 C 16.574219 -35.90625 12.210938 -30.238281 12.210938 -21.007812 C 12.210938 -11.703125 16.5 -10.25 23.550781 -10.25 C 30.527344 -10.25 34.890625 -11.773438 34.890625 -21.007812 C 34.890625 -30.09375 30.527344 -35.90625 23.550781 -35.90625 Z M 23.550781 -35.90625 "/></g></g></g><g fill="#0f4d79" fill-opacity="1"><g transform="translate(276.292347, 64.056547)"><g><path d="M 36.78125 -38.234375 L 36.78125 -32.492188 C 33.074219 -34.527344 29.367188 -35.542969 25.585938 -35.542969 C 17.082031 -35.542969 12.574219 -29.511719 12.574219 -19.84375 C 13.230469 -13.011719 16.789062 -10.683594 25.296875 -10.25 C 29.074219 -10.25 32.925781 -9.738281 36.632812 -11.773438 L 36.78125 -1.527344 C 33.144531 0.144531 29.292969 1.019531 24.859375 1.019531 C 12.9375 1.019531 5.304688 -7.050781 5.304688 -19.84375 C 5.304688 -32.78125 12.9375 -40.703125 25.296875 -40.703125 C 29.292969 -40.703125 33.21875 -39.90625 36.78125 -38.234375 Z M 36.78125 -38.234375 "/></g></g></g><g fill="#0f4d79" fill-opacity="1"><g transform="translate(323.460551, 64.056547)"><g><path d="M 23.550781 -40.703125 C 34.890625 -40.703125 41.796875 -32.925781 41.796875 -19.84375 C 41.796875 -6.832031 34.890625 1.019531 23.550781 1.019531 C 12.140625 1.019531 5.304688 -6.832031 5.304688 -19.84375 C 5.304688 -32.925781 12.140625 -40.703125 23.550781 -40.703125 Z M 23.550781 -35.90625 C 16.574219 -35.90625 12.210938 -30.238281 12.210938 -21.007812 C 12.210938 -11.703125 16.5 -10.25 23.550781 -10.25 C 30.527344 -10.25 34.890625 -11.773438 34.890625 -21.007812 C 34.890625 -30.09375 30.527344 -35.90625 23.550781 -35.90625 Z M 23.550781 -35.90625 "/></g></g></g><g clip-path="url(#6146c09f68)"><path fill="#efcd18" d="M 40.855469 11.261719 C 40.660156 11.226562 40.457031 11.195312 40.261719 11.167969 C 39.945312 11.132812 39.621094 11.125 39.320312 11.125 C 38.863281 11.140625 38.394531 11.183594 37.949219 11.28125 C 37.496094 11.375 37.0625 11.511719 36.621094 11.679688 C 35.734375 12.054688 34.957031 12.578125 34.308594 13.21875 C 33.636719 13.878906 33.097656 14.652344 32.734375 15.507812 C 32.359375 16.347656 32.144531 17.269531 32.125 18.21875 C 32.101562 19.117188 32.238281 20.054688 32.570312 20.953125 C 32.636719 21.148438 32.628906 21.347656 32.546875 21.523438 C 32.46875 21.695312 32.316406 21.832031 32.136719 21.910156 C 31.941406 21.976562 31.742188 21.96875 31.566406 21.890625 C 31.394531 21.808594 31.25 21.660156 31.179688 21.464844 C 30.90625 20.722656 30.730469 19.976562 30.675781 19.210938 C 30.609375 18.515625 30.628906 17.832031 30.730469 17.160156 C 30.628906 17.148438 30.53125 17.148438 30.421875 17.148438 C 30.25 17.148438 30.070312 17.160156 29.886719 17.183594 C 29.65625 17.203125 29.433594 17.246094 29.203125 17.304688 C 28.972656 17.363281 28.75 17.429688 28.539062 17.519531 L 28.476562 17.542969 C 27.863281 17.800781 27.320312 18.167969 26.875 18.621094 C 26.40625 19.089844 26.050781 19.636719 25.800781 20.226562 C 25.570312 20.796875 25.433594 21.398438 25.425781 22.027344 C 25.410156 22.53125 25.484375 23.046875 25.628906 23.550781 C 25.722656 23.492188 25.808594 23.449219 25.902344 23.398438 C 26.074219 23.300781 26.269531 23.21875 26.449219 23.140625 C 26.757812 23.019531 27.078125 22.902344 27.40625 22.824219 C 27.738281 22.746094 28.070312 22.703125 28.402344 22.667969 C 28.734375 22.644531 29.074219 22.644531 29.40625 22.667969 C 29.738281 22.6875 30.070312 22.730469 30.398438 22.816406 C 30.601562 22.859375 30.769531 22.988281 30.867188 23.148438 C 30.96875 23.308594 31.003906 23.5 30.960938 23.710938 C 30.917969 23.902344 30.804688 24.078125 30.628906 24.175781 C 30.472656 24.269531 30.277344 24.3125 30.070312 24.269531 C 29.816406 24.214844 29.5625 24.175781 29.304688 24.15625 C 29.042969 24.132812 28.792969 24.132812 28.527344 24.15625 C 28.265625 24.175781 28.015625 24.21875 27.761719 24.277344 C 27.507812 24.34375 27.257812 24.429688 27.019531 24.515625 C 26.390625 24.773438 25.859375 25.15625 25.398438 25.59375 C 24.929688 26.070312 24.558594 26.617188 24.316406 27.222656 C 24.078125 27.824219 23.941406 28.472656 23.941406 29.136719 C 23.941406 29.777344 24.0625 30.421875 24.328125 31.050781 C 24.589844 31.660156 24.957031 32.207031 25.410156 32.652344 C 25.878906 33.121094 26.433594 33.488281 27.039062 33.734375 C 27.632812 33.984375 28.292969 34.109375 28.957031 34.109375 C 29.585938 34.109375 30.234375 33.984375 30.863281 33.734375 C 30.941406 33.699219 31.011719 33.667969 31.078125 33.632812 C 31.144531 33.597656 31.214844 33.566406 31.28125 33.53125 L 31.460938 33.429688 C 31.710938 32.726562 32.03125 32.042969 32.433594 31.417969 C 32.84375 30.777344 33.335938 30.199219 33.925781 29.710938 C 34.105469 29.4375 34.242188 29.140625 34.359375 28.847656 C 34.472656 28.53125 34.554688 28.207031 34.597656 27.875 C 34.640625 27.5 34.640625 27.128906 34.582031 26.746094 C 34.539062 26.378906 34.429688 26.019531 34.285156 25.675781 C 34.25 25.582031 34.222656 25.496094 34.171875 25.414062 C 34.121094 25.335938 34.089844 25.242188 34.035156 25.164062 C 33.992188 25.085938 33.941406 25.003906 33.882812 24.925781 C 33.839844 24.847656 33.78125 24.765625 33.722656 24.695312 C 33.601562 24.523438 33.542969 24.328125 33.574219 24.148438 C 33.59375 23.953125 33.6875 23.773438 33.859375 23.644531 C 34.019531 23.523438 34.214844 23.472656 34.410156 23.492188 C 34.589844 23.53125 34.777344 23.617188 34.898438 23.78125 C 34.976562 23.882812 35.050781 23.984375 35.113281 24.089844 C 35.195312 24.207031 35.265625 24.308594 35.316406 24.421875 C 35.382812 24.523438 35.441406 24.636719 35.496094 24.753906 C 35.554688 24.867188 35.613281 24.984375 35.65625 25.105469 C 35.851562 25.574219 35.988281 26.0625 36.046875 26.550781 C 36.109375 27.054688 36.125 27.550781 36.058594 28.054688 C 36.046875 28.207031 36.015625 28.351562 35.996094 28.507812 L 35.980469 28.523438 L 36.023438 28.507812 C 37.667969 27.925781 38.921875 27.675781 39.972656 27.59375 C 41.027344 27.5 41.855469 27.582031 42.671875 27.660156 C 43.535156 27.753906 44.371094 27.832031 45.453125 27.636719 C 46.527344 27.457031 47.863281 27 49.742188 26.019531 C 49.921875 25.925781 50.117188 25.90625 50.304688 25.960938 C 50.441406 26.003906 50.566406 26.085938 50.671875 26.199219 L 50.6875 26.199219 L 50.730469 26.292969 C 50.753906 26.335938 50.773438 26.371094 50.789062 26.414062 C 50.804688 26.4375 51.15625 27.335938 51.003906 28.503906 C 51.746094 28.09375 52.316406 27.453125 52.785156 26.710938 C 53.347656 25.832031 53.757812 24.8125 54.132812 23.898438 C 54.453125 23.113281 54.738281 22.394531 55.09375 21.824219 C 55.425781 21.277344 55.8125 20.867188 56.3125 20.695312 C 56.347656 20.535156 56.355469 20.378906 56.371094 20.207031 C 56.382812 20.003906 56.382812 19.78125 56.371094 19.578125 C 56.355469 19.320312 56.3125 19.054688 56.253906 18.800781 C 56.195312 18.542969 56.117188 18.292969 56.015625 18.054688 C 55.761719 17.449219 55.402344 16.925781 54.964844 16.492188 C 54.507812 16.039062 53.96875 15.6875 53.390625 15.441406 C 53.132812 15.339844 52.84375 15.246094 52.554688 15.191406 C 52.28125 15.125 51.992188 15.089844 51.710938 15.089844 L 51.691406 15.089844 C 51.667969 15.089844 51.648438 15.089844 51.609375 15.089844 L 51.546875 15.074219 C 51.234375 15.074219 50.933594 15.109375 50.625 15.175781 C 50.3125 15.234375 50.011719 15.328125 49.699219 15.449219 C 49.152344 15.679688 48.675781 15.996094 48.25 16.382812 C 47.824219 16.78125 47.488281 17.261719 47.226562 17.773438 C 46.976562 18.285156 46.816406 18.851562 46.757812 19.433594 C 46.699219 19.996094 46.746094 20.574219 46.910156 21.15625 C 46.953125 21.347656 46.933594 21.550781 46.832031 21.714844 C 46.738281 21.890625 46.578125 22.011719 46.382812 22.070312 C 46.183594 22.125 45.988281 22.089844 45.8125 21.988281 C 45.65625 21.894531 45.527344 21.738281 45.476562 21.542969 C 45.273438 20.796875 45.214844 20.027344 45.28125 19.292969 C 45.359375 18.542969 45.570312 17.800781 45.894531 17.125 C 46.226562 16.441406 46.679688 15.832031 47.242188 15.304688 C 47.773438 14.792969 48.417969 14.382812 49.144531 14.074219 C 49.441406 13.953125 49.757812 13.84375 50.082031 13.765625 C 50.320312 13.707031 50.550781 13.671875 50.789062 13.644531 C 50.765625 13.527344 50.722656 13.40625 50.6875 13.277344 C 50.644531 13.152344 50.59375 13.039062 50.550781 12.910156 C 50.296875 12.304688 49.945312 11.78125 49.5 11.347656 C 49.050781 10.902344 48.519531 10.550781 47.933594 10.3125 C 47.351562 10.074219 46.722656 9.945312 46.089844 9.945312 C 45.476562 9.945312 44.839844 10.058594 44.242188 10.3125 C 43.644531 10.5625 43.109375 10.921875 42.679688 11.363281 C 42.230469 11.816406 41.878906 12.355469 41.640625 12.929688 C 41.402344 13.511719 41.265625 14.140625 41.273438 14.773438 C 41.273438 15.382812 41.386719 16.019531 41.640625 16.613281 C 41.742188 16.851562 41.871094 17.089844 42.007812 17.320312 C 42.160156 17.535156 42.316406 17.75 42.496094 17.960938 C 42.671875 18.160156 42.867188 18.347656 43.066406 18.523438 C 43.285156 18.679688 43.5 18.832031 43.730469 18.96875 C 43.910156 19.070312 44.039062 19.226562 44.085938 19.414062 C 44.140625 19.59375 44.121094 19.800781 44.019531 19.976562 C 43.925781 20.15625 43.757812 20.285156 43.570312 20.328125 C 43.390625 20.386719 43.195312 20.363281 43.007812 20.261719 C 42.699219 20.089844 42.402344 19.894531 42.128906 19.679688 C 41.855469 19.464844 41.605469 19.210938 41.378906 18.960938 C 41.148438 18.703125 40.933594 18.414062 40.753906 18.117188 C 40.574219 17.824219 40.398438 17.515625 40.277344 17.199219 C 39.945312 16.398438 39.785156 15.59375 39.785156 14.78125 C 39.785156 13.945312 39.945312 13.125 40.261719 12.363281 C 40.363281 12.109375 40.492188 11.859375 40.617188 11.636719 C 40.679688 11.527344 40.765625 11.398438 40.855469 11.261719 Z M 34.964844 30.820312 C 34.90625 30.882812 34.847656 30.941406 34.785156 30.992188 C 34.742188 31.027344 34.683594 31.054688 34.625 31.085938 C 34.199219 31.472656 33.859375 31.921875 33.566406 32.410156 C 33.253906 32.914062 33.015625 33.460938 32.824219 34.027344 C 32.808594 34.070312 32.800781 34.128906 32.785156 34.179688 C 32.765625 34.222656 32.75 34.273438 32.722656 34.316406 C 32.410156 35.332031 32.230469 36.402344 32.136719 37.460938 C 32.058594 38.453125 32.058594 39.417969 32.09375 40.289062 C 33.203125 37.871094 34.617188 36.640625 36.28125 36.027344 C 38.121094 35.359375 40.210938 35.46875 42.46875 35.597656 C 43.851562 35.660156 45.289062 35.75 46.757812 35.617188 C 48.207031 35.503906 49.679688 35.171875 51.140625 34.460938 C 54.464844 32.796875 55.863281 30.1875 56.390625 27.761719 C 56.84375 25.632812 56.644531 23.625 56.433594 22.507812 C 56.144531 22.933594 55.851562 23.667969 55.519531 24.488281 C 55.042969 25.644531 54.515625 26.949219 53.714844 28.046875 C 52.914062 29.140625 51.855469 30.019531 50.328125 30.335938 C 49.851562 31.0625 49.058594 31.769531 47.824219 32.351562 C 46.558594 32.933594 44.828125 33.375 42.425781 33.546875 C 42.222656 33.5625 42.027344 33.488281 41.878906 33.367188 C 41.742188 33.242188 41.640625 33.058594 41.625 32.855469 C 41.605469 32.652344 41.683594 32.460938 41.804688 32.324219 C 41.929688 32.171875 42.101562 32.085938 42.308594 32.0625 C 45.851562 31.8125 47.695312 30.957031 48.632812 30 C 49.398438 29.234375 49.554688 28.414062 49.550781 27.8125 C 47.847656 28.632812 46.570312 29.019531 45.496094 29.179688 C 44.363281 29.351562 43.464844 29.257812 42.527344 29.164062 C 41.796875 29.097656 41.042969 29.011719 40.097656 29.097656 C 39.152344 29.1875 38.019531 29.410156 36.527344 29.933594 C 36.238281 30.035156 35.980469 30.148438 35.726562 30.285156 C 35.476562 30.421875 35.253906 30.574219 35.027344 30.738281 Z M 36.484375 18.25 C 36.5625 18.066406 36.714844 17.917969 36.894531 17.851562 C 37.070312 17.789062 37.269531 17.773438 37.464844 17.851562 C 37.644531 17.929688 37.796875 18.082031 37.863281 18.25 C 37.925781 18.429688 37.941406 18.621094 37.863281 18.816406 C 37.769531 19.054688 37.6875 19.292969 37.644531 19.542969 C 37.589844 19.800781 37.566406 20.054688 37.566406 20.304688 C 37.566406 20.558594 37.589844 20.808594 37.644531 21.054688 C 37.6875 21.304688 37.769531 21.558594 37.875 21.796875 C 38.070312 22.269531 38.367188 22.710938 38.71875 23.046875 C 39.085938 23.414062 39.519531 23.695312 39.988281 23.890625 C 40.457031 24.082031 40.96875 24.183594 41.480469 24.183594 C 41.972656 24.183594 42.484375 24.082031 42.964844 23.890625 C 43.160156 23.808594 43.363281 23.808594 43.535156 23.890625 C 43.714844 23.953125 43.867188 24.089844 43.945312 24.285156 C 44.011719 24.480469 44.011719 24.675781 43.945312 24.855469 C 43.867188 25.027344 43.730469 25.171875 43.535156 25.25 C 42.867188 25.539062 42.167969 25.660156 41.480469 25.675781 C 40.761719 25.675781 40.066406 25.523438 39.414062 25.265625 C 38.761719 24.992188 38.164062 24.601562 37.667969 24.105469 C 37.175781 23.617188 36.78125 23.035156 36.492188 22.363281 C 36.355469 22.03125 36.253906 21.695312 36.183594 21.347656 C 36.117188 21.011719 36.082031 20.652344 36.082031 20.300781 C 36.082031 19.945312 36.117188 19.59375 36.183594 19.25 C 36.253906 18.917969 36.363281 18.570312 36.484375 18.25 Z M 48.957031 25.445312 C 48.800781 25.507812 48.617188 25.539062 48.453125 25.488281 C 48.28125 25.445312 48.121094 25.351562 48.019531 25.191406 C 47.90625 25.019531 47.867188 24.824219 47.90625 24.628906 C 47.925781 24.449219 48.042969 24.265625 48.199219 24.15625 C 48.238281 24.140625 48.257812 24.121094 48.292969 24.113281 C 48.316406 24.089844 48.351562 24.078125 48.375 24.078125 C 48.820312 23.882812 49.210938 23.625 49.511719 23.300781 C 49.84375 22.960938 50.105469 22.574219 50.292969 22.140625 C 50.464844 21.710938 50.550781 21.257812 50.550781 20.789062 C 50.566406 20.335938 50.472656 19.875 50.292969 19.421875 L 50.269531 19.378906 C 50.234375 19.296875 50.210938 19.242188 50.175781 19.175781 C 50.15625 19.117188 50.109375 19.054688 50.074219 18.980469 C 50.03125 18.917969 49.996094 18.84375 49.953125 18.789062 C 49.910156 18.722656 49.859375 18.664062 49.816406 18.59375 C 49.691406 18.433594 49.644531 18.226562 49.664062 18.046875 C 49.6875 17.851562 49.785156 17.679688 49.953125 17.558594 C 50.109375 17.433594 50.320312 17.382812 50.5 17.40625 C 50.695312 17.429688 50.867188 17.519531 50.992188 17.695312 C 51.054688 17.773438 51.128906 17.867188 51.183594 17.953125 C 51.25 18.054688 51.308594 18.148438 51.367188 18.242188 C 51.421875 18.335938 51.464844 18.433594 51.523438 18.535156 C 51.566406 18.628906 51.617188 18.730469 51.660156 18.832031 C 51.921875 19.472656 52.050781 20.117188 52.050781 20.765625 C 52.050781 21.4375 51.914062 22.097656 51.660156 22.714844 C 51.410156 23.320312 51.046875 23.875 50.578125 24.34375 C 50.132812 24.796875 49.585938 25.171875 48.957031 25.445312 Z M 24.378906 24.523438 C 24.070312 23.746094 23.933594 22.953125 23.925781 22.164062 C 23.925781 21.300781 24.097656 20.457031 24.417969 19.679688 C 24.746094 18.894531 25.214844 18.175781 25.820312 17.570312 C 26.40625 16.988281 27.113281 16.5 27.921875 16.167969 L 27.933594 16.15625 C 28.222656 16.039062 28.503906 15.9375 28.8125 15.867188 C 29.109375 15.789062 29.417969 15.730469 29.730469 15.695312 C 29.980469 15.671875 30.234375 15.65625 30.492188 15.65625 C 30.6875 15.65625 30.882812 15.671875 31.078125 15.695312 C 31.113281 15.578125 31.144531 15.476562 31.179688 15.382812 C 31.238281 15.226562 31.300781 15.066406 31.375 14.910156 C 31.820312 13.886719 32.46875 12.9375 33.277344 12.152344 C 34.054688 11.375 34.984375 10.75 36.058594 10.3125 C 36.570312 10.09375 37.113281 9.9375 37.644531 9.820312 C 38.195312 9.707031 38.742188 9.640625 39.304688 9.640625 C 39.78125 9.628906 40.25 9.664062 40.71875 9.734375 C 41.140625 9.792969 41.5625 9.886719 41.984375 10.007812 C 42.214844 9.816406 42.460938 9.621094 42.730469 9.460938 C 43.023438 9.28125 43.339844 9.109375 43.671875 8.972656 C 44.453125 8.640625 45.273438 8.484375 46.082031 8.484375 C 46.917969 8.484375 47.738281 8.65625 48.503906 8.957031 C 49.253906 9.273438 49.96875 9.734375 50.558594 10.324219 C 51.128906 10.894531 51.597656 11.578125 51.929688 12.363281 C 51.984375 12.519531 52.042969 12.679688 52.101562 12.828125 C 52.144531 12.988281 52.195312 13.148438 52.238281 13.320312 C 52.257812 13.414062 52.273438 13.5 52.296875 13.570312 L 52.308594 13.664062 C 52.570312 13.6875 52.820312 13.730469 53.074219 13.800781 C 53.382812 13.867188 53.679688 13.972656 53.976562 14.097656 C 54.738281 14.40625 55.4375 14.875 56.03125 15.449219 C 56.601562 16.019531 57.070312 16.714844 57.398438 17.5 C 57.539062 17.816406 57.636719 18.148438 57.71875 18.476562 C 57.796875 18.808594 57.839844 19.148438 57.867188 19.5 C 57.890625 19.816406 57.890625 20.140625 57.867188 20.457031 C 57.832031 20.753906 57.789062 21.046875 57.71875 21.34375 C 57.890625 22.003906 58.4375 24.523438 57.96875 27.394531 C 57.5 30.359375 55.949219 33.691406 51.804688 35.753906 C 50.160156 36.574219 48.539062 36.941406 46.953125 37.078125 C 45.382812 37.214844 43.859375 37.136719 42.398438 37.058594 L 42.382812 37.058594 C 37.964844 36.820312 34.242188 36.625 32.433594 43.894531 C 32.390625 44.09375 32.261719 44.261719 32.09375 44.347656 C 31.9375 44.449219 31.726562 44.484375 31.53125 44.441406 C 31.378906 44.40625 31.257812 44.324219 31.15625 44.226562 C 31.0625 44.109375 31 43.972656 30.976562 43.828125 C 30.941406 43.65625 30.722656 42.460938 30.636719 40.800781 C 30.558594 39.230469 30.582031 37.238281 30.96875 35.289062 C 30.300781 35.519531 29.601562 35.617188 28.914062 35.617188 C 28.070312 35.617188 27.234375 35.445312 26.472656 35.128906 C 25.683594 34.8125 24.964844 34.332031 24.359375 33.726562 C 23.765625 33.144531 23.285156 32.4375 22.945312 31.617188 C 22.605469 30.8125 22.449219 29.976562 22.449219 29.140625 C 22.449219 28.285156 22.621094 27.445312 22.9375 26.660156 C 23.109375 26.234375 23.328125 25.824219 23.585938 25.449219 C 23.832031 25.128906 24.089844 24.804688 24.378906 24.523438 Z M 24.378906 24.523438 " fill-opacity="1" fill-rule="nonzero"/></g><g clip-path="url(#9c7f4a8653)"><g clip-path="url(#db9f5a17b9)"><g clip-path="url(#6866d70074)"><path fill="#0f4d79" d="M 9.226562 37.25 C 8.898438 35.859375 10.269531 34.363281 11.710938 34.679688 C 12.664062 34.804688 13.222656 35.652344 13.527344 36.472656 C 14.960938 35.984375 16.5625 36.878906 16.703125 38.417969 C 17.78125 38.195312 19.082031 38.558594 19.460938 39.6875 C 19.929688 41.242188 20.140625 42.863281 20.328125 44.46875 C 20.589844 45.167969 19.316406 45.59375 19.113281 44.867188 C 18.777344 43.269531 18.730469 41.597656 18.195312 40.042969 C 17.949219 39.5625 17.382812 39.679688 16.945312 39.730469 C 17.171875 41.261719 17.625 42.753906 17.808594 44.289062 C 17.929688 44.894531 16.851562 45.175781 16.617188 44.585938 C 16.070312 42.480469 15.777344 40.316406 15.25 38.203125 C 15.183594 37.519531 14.304688 37.703125 13.835938 37.742188 C 14.480469 40.195312 15.285156 42.609375 15.886719 45.070312 C 16.058594 45.710938 14.925781 46.074219 14.703125 45.433594 C 13.765625 42.554688 13.039062 39.609375 12.15625 36.710938 C 12.085938 36.28125 11.699219 36.03125 11.3125 35.921875 C 10.671875 35.972656 10.386719 36.660156 10.554688 37.207031 C 11.296875 40.910156 12.011719 44.621094 12.796875 48.3125 C 13.652344 51.484375 15.207031 54.800781 18.222656 56.460938 C 20.972656 58.070312 24.152344 59.476562 25.628906 62.480469 C 25.925781 63 25.175781 63.582031 24.707031 63.257812 C 23.847656 62.28125 23.222656 61.074219 22.117188 60.328125 C 19.8125 58.675781 16.976562 57.75 15.039062 55.617188 C 13.023438 53.308594 11.820312 50.382812 11.253906 47.398438 C 10.589844 44.015625 9.894531 40.636719 9.226562 37.25 Z M 9.226562 37.25 " fill-opacity="1" fill-rule="nonzero"/></g></g></g><g clip-path="url(#507acd7d10)"><g clip-path="url(#74b94f0336)"><g clip-path="url(#1b13c67093)"><path fill="#0f4d79" d="M 15.777344 46.347656 C 16.515625 45.617188 17.722656 45.277344 18.671875 45.796875 C 20.484375 46.8125 22.117188 48.125 23.941406 49.121094 C 25.847656 50.097656 28.261719 50.589844 29.363281 52.617188 C 30.636719 55.070312 31.742188 57.613281 33.042969 60.058594 C 33.363281 60.4375 33.261719 61.042969 32.746094 61.183594 C 32.242188 61.335938 31.992188 60.847656 31.800781 60.488281 C 30.539062 58.160156 29.496094 55.71875 28.28125 53.367188 C 27.558594 51.9375 25.9375 51.453125 24.570312 50.839844 C 22.1875 49.90625 20.265625 48.167969 18.046875 46.941406 C 17.347656 46.535156 16.078125 47.390625 16.683594 48.179688 C 18.402344 50.140625 20.496094 51.757812 22.265625 53.671875 C 22.652344 54.285156 21.679688 54.953125 21.226562 54.402344 C 19.488281 52.8125 17.796875 51.167969 16.09375 49.539062 C 15.210938 48.757812 14.867188 47.25 15.777344 46.347656 Z M 15.777344 46.347656 " fill-opacity="1" fill-rule="nonzero"/></g></g></g><g clip-path="url(#cc54675ba4)"><g clip-path="url(#cf5240b1ba)"><g clip-path="url(#7cbf6155c8)"><path fill="#0f4d79" d="M 68.292969 34.644531 C 69.683594 34.25 71.128906 35.605469 70.925781 36.992188 C 70.613281 38.863281 70.183594 40.710938 69.839844 42.570312 C 69.144531 45.699219 68.859375 48.964844 67.472656 51.898438 C 66.628906 53.695312 65.539062 55.445312 63.941406 56.671875 C 62.078125 58.152344 59.800781 58.996094 57.90625 60.421875 C 56.894531 61.171875 56.308594 62.308594 55.5 63.234375 C 55.027344 63.566406 54.289062 63.003906 54.554688 62.476562 C 55.027344 61.574219 55.6875 60.773438 56.382812 60.027344 C 58.660156 57.824219 61.9375 56.984375 64.148438 54.707031 C 66.023438 52.539062 67.113281 49.792969 67.632812 47.003906 C 68.273438 43.644531 68.980469 40.296875 69.597656 36.9375 C 69.757812 36.359375 69.183594 36.042969 68.816406 35.730469 C 68.539062 36.03125 68.0625 36.214844 67.976562 36.65625 C 67.179688 39.347656 66.449219 42.066406 65.667969 44.765625 C 65.542969 45.238281 65.328125 45.933594 64.675781 45.695312 C 64.070312 45.5 64.261719 44.851562 64.394531 44.414062 C 65.023438 42.171875 65.683594 39.945312 66.289062 37.699219 C 65.816406 37.640625 64.945312 37.476562 64.875 38.171875 C 64.394531 40.167969 64.085938 42.207031 63.625 44.210938 C 63.640625 44.917969 62.679688 45.089844 62.332031 44.519531 C 62.398438 42.882812 62.984375 41.3125 63.183594 39.6875 C 62.746094 39.632812 62.167969 39.53125 61.933594 40.019531 C 61.40625 41.574219 61.371094 43.238281 61.042969 44.832031 C 60.882812 45.460938 59.765625 45.246094 59.808594 44.636719 C 59.964844 42.953125 60.203125 41.253906 60.683594 39.628906 C 61.0625 38.519531 62.355469 38.148438 63.425781 38.375 C 63.5625 36.832031 65.164062 35.9375 66.597656 36.417969 C 66.898438 35.636719 67.394531 34.820312 68.292969 34.644531 Z M 68.292969 34.644531 " fill-opacity="1" fill-rule="nonzero"/></g></g></g><g clip-path="url(#1db4c5c072)"><g clip-path="url(#5a138ebad2)"><g clip-path="url(#b3064736b6)"><path fill="#0f4d79" d="M 61.855469 45.605469 C 63.164062 45.179688 64.859375 46.144531 64.933594 47.570312 C 64.972656 48.5625 64.273438 49.347656 63.585938 49.976562 C 62.015625 51.425781 60.519531 52.949219 58.929688 54.378906 C 58.484375 54.910156 57.542969 54.265625 57.890625 53.65625 C 59.652344 51.742188 61.722656 50.117188 63.449219 48.171875 C 64.097656 47.394531 62.851562 46.503906 62.132812 46.890625 C 59.90625 48.109375 57.988281 49.863281 55.613281 50.8125 C 54.296875 51.410156 52.738281 51.863281 51.980469 53.199219 C 50.621094 55.75 49.5625 58.460938 48.097656 60.957031 C 47.742188 61.5625 46.636719 60.933594 47.019531 60.347656 C 48.320312 57.777344 49.507812 55.152344 50.816406 52.589844 C 51.695312 50.953125 53.519531 50.296875 55.132812 49.597656 C 57.578125 48.625 59.488281 46.710938 61.855469 45.605469 Z M 61.855469 45.605469 " fill-opacity="1" fill-rule="nonzero"/></g></g></g></svg>