<svg xmlns="http://www.w3.org/2000/svg" xmlns:xlink="http://www.w3.org/1999/xlink" zoomAndPan="magnify" preserveAspectRatio="xMidYMid meet" version="1.0" viewBox="16.52 155.05 349.13 54.37"><defs><g/><clipPath id="135c286f12"><path d="M 29.269531 155.070312 L 63.769531 155.070312 L 63.769531 189.570312 L 29.269531 189.570312 Z M 29.269531 155.070312 " clip-rule="nonzero"/></clipPath><clipPath id="0781544838"><path d="M 16 180 L 33 180 L 33 209 L 16 209 Z M 16 180 " clip-rule="nonzero"/></clipPath><clipPath id="d1d291588f"><path d="M 14.921875 180.652344 L 32.238281 175.746094 L 40.824219 206.054688 L 23.503906 210.957031 Z M 14.921875 180.652344 " clip-rule="nonzero"/></clipPath><clipPath id="6bf98bc9d4"><path d="M 14.921875 180.652344 L 51.722656 170.226562 L 60.308594 200.535156 L 23.503906 210.957031 Z M 14.921875 180.652344 " clip-rule="nonzero"/></clipPath><clipPath id="0828c1734a"><path d="M 22 190 L 40 190 L 40 207 L 22 207 Z M 22 190 " clip-rule="nonzero"/></clipPath><clipPath id="5a57bde40e"><path d="M 14.921875 180.652344 L 32.238281 175.746094 L 40.824219 206.054688 L 23.503906 210.957031 Z M 14.921875 180.652344 " clip-rule="nonzero"/></clipPath><clipPath id="98d3fb9103"><path d="M 14.921875 180.652344 L 51.722656 170.226562 L 60.308594 200.535156 L 23.503906 210.957031 Z M 14.921875 180.652344 " clip-rule="nonzero"/></clipPath><clipPath id="ca48f47fd8"><path d="M 59 180 L 76 180 L 76 209 L 59 209 Z M 59 180 " clip-rule="nonzero"/></clipPath><clipPath id="67c9bfd1f7"><path d="M 58.976562 175.40625 L 77.753906 180.671875 L 69.246094 211.003906 L 50.472656 205.738281 Z M 58.976562 175.40625 " clip-rule="nonzero"/></clipPath><clipPath id="844446ae65"><path d="M 40.824219 170.316406 L 77.652344 180.644531 L 69.144531 210.976562 L 32.316406 200.644531 Z M 40.824219 170.316406 " clip-rule="nonzero"/></clipPath><clipPath id="0580c20516"><path d="M 52 190 L 71 190 L 71 207 L 52 207 Z M 52 190 " clip-rule="nonzero"/></clipPath><clipPath id="0ec85c5aa8"><path d="M 58.976562 175.40625 L 77.753906 180.671875 L 69.246094 211.003906 L 50.472656 205.738281 Z M 58.976562 175.40625 " clip-rule="nonzero"/></clipPath><clipPath id="120b8bbbe5"><path d="M 40.824219 170.316406 L 77.652344 180.644531 L 69.144531 210.976562 L 32.316406 200.644531 Z M 40.824219 170.316406 " clip-rule="nonzero"/></clipPath></defs><g fill="#ffffff" fill-opacity="1"><g transform="translate(92.772325, 208.430919)"><g><path d="M 40.132812 -23.03125 L 40.132812 -20.660156 L 11.65625 -20.660156 C 11.796875 -10.46875 16.820312 -8.722656 25.125 -8.304688 C 29.941406 -8.304688 34.480469 -8.234375 38.945312 -10.609375 L 39.085938 -1.953125 C 34.546875 0 29.800781 0.976562 24.917969 0.976562 C 12.773438 0.558594 5.09375 -6.628906 5.09375 -18.703125 C 5.582031 -31.199219 12.355469 -39.085938 23.871094 -39.085938 C 34.058594 -38.667969 39.292969 -33.921875 40.132812 -23.03125 Z M 12.355469 -26.101562 L 34.6875 -26.171875 C 33.988281 -30.429688 30.082031 -35.804688 23.871094 -35.804688 C 16.890625 -35.804688 12.355469 -30.710938 12.355469 -26.101562 Z M 12.355469 -26.101562 "/></g></g></g><g fill="#ffffff" fill-opacity="1"><g transform="translate(142.879116, 208.430919)"><g><path d="M 38.457031 -23.03125 L 39.433594 0 L 30.5 0 L 31.828125 -23.171875 C 31.828125 -30.429688 29.664062 -33.988281 24.078125 -33.988281 C 16.402344 -33.988281 12.773438 -29.382812 12.773438 -21.914062 L 13.820312 0 L 5.09375 0 L 6.140625 -38.527344 L 12.421875 -38.527344 L 12.421875 -33.921875 C 15.425781 -36.292969 19.472656 -39.085938 24.777344 -39.085938 C 33.5 -39.085938 37.96875 -33.570312 38.457031 -23.03125 Z M 38.457031 -23.03125 "/></g></g></g><g fill="#ffffff" fill-opacity="1"><g transform="translate(192.357844, 208.430919)"><g><path d="M 21.777344 -52.347656 L 27.359375 -51.648438 L 27.359375 -46.484375 L 21.707031 -47.113281 C 18.566406 -47.113281 17.449219 -46.273438 17.449219 -41.527344 L 17.726562 -38.179688 L 27.707031 -38.179688 L 27.707031 -31.964844 L 17.726562 -31.964844 L 18.773438 0 L 9.769531 0 L 10.75 -31.964844 L 5.09375 -31.964844 L 5.09375 -38.179688 L 10.75 -38.179688 L 11.097656 -40.828125 C 11.097656 -49.34375 15.914062 -52.347656 21.777344 -52.347656 Z M 21.777344 -52.347656 "/></g></g></g><g fill="#ffffff" fill-opacity="1"><g transform="translate(230.112656, 208.430919)"><g><path d="M 22.613281 -39.085938 C 33.5 -39.085938 40.132812 -31.617188 40.132812 -19.054688 C 40.132812 -6.5625 33.5 0.976562 22.613281 0.976562 C 11.65625 0.976562 5.09375 -6.5625 5.09375 -19.054688 C 5.09375 -31.617188 11.65625 -39.085938 22.613281 -39.085938 Z M 22.613281 -34.480469 C 15.914062 -34.480469 11.726562 -29.035156 11.726562 -20.171875 C 11.726562 -11.238281 15.84375 -9.839844 22.613281 -9.839844 C 29.3125 -9.839844 33.5 -11.308594 33.5 -20.171875 C 33.5 -28.894531 29.3125 -34.480469 22.613281 -34.480469 Z M 22.613281 -34.480469 "/></g></g></g><g fill="#ffffff" fill-opacity="1"><g transform="translate(280.219442, 208.430919)"><g><path d="M 35.316406 -36.710938 L 35.316406 -31.199219 C 31.757812 -33.152344 28.195312 -34.128906 24.566406 -34.128906 C 16.402344 -34.128906 12.074219 -28.335938 12.074219 -19.054688 C 12.703125 -12.492188 16.121094 -10.261719 24.289062 -9.839844 C 27.917969 -9.839844 31.617188 -9.351562 35.175781 -11.308594 L 35.316406 -1.464844 C 31.828125 0.140625 28.128906 0.976562 23.871094 0.976562 C 12.421875 0.976562 5.09375 -6.769531 5.09375 -19.054688 C 5.09375 -31.476562 12.421875 -39.085938 24.289062 -39.085938 C 28.128906 -39.085938 31.894531 -38.316406 35.316406 -36.710938 Z M 35.316406 -36.710938 "/></g></g></g><g fill="#ffffff" fill-opacity="1"><g transform="translate(325.511057, 208.430919)"><g><path d="M 22.613281 -39.085938 C 33.5 -39.085938 40.132812 -31.617188 40.132812 -19.054688 C 40.132812 -6.5625 33.5 0.976562 22.613281 0.976562 C 11.65625 0.976562 5.09375 -6.5625 5.09375 -19.054688 C 5.09375 -31.617188 11.65625 -39.085938 22.613281 -39.085938 Z M 22.613281 -34.480469 C 15.914062 -34.480469 11.726562 -29.035156 11.726562 -20.171875 C 11.726562 -11.238281 15.84375 -9.839844 22.613281 -9.839844 C 29.3125 -9.839844 33.5 -11.308594 33.5 -20.171875 C 33.5 -28.894531 29.3125 -34.480469 22.613281 -34.480469 Z M 22.613281 -34.480469 "/></g></g></g><g clip-path="url(#135c286f12)"><path fill="#ffffff" d="M 46.910156 157.730469 C 46.726562 157.695312 46.53125 157.667969 46.34375 157.640625 C 46.042969 157.605469 45.730469 157.601562 45.441406 157.601562 C 45.003906 157.613281 44.554688 157.65625 44.128906 157.75 C 43.691406 157.839844 43.277344 157.972656 42.855469 158.128906 C 42.007812 158.488281 41.257812 158.992188 40.636719 159.605469 C 39.996094 160.242188 39.476562 160.980469 39.132812 161.800781 C 38.773438 162.605469 38.566406 163.488281 38.542969 164.398438 C 38.523438 165.261719 38.65625 166.15625 38.972656 167.019531 C 39.035156 167.207031 39.027344 167.398438 38.953125 167.5625 C 38.875 167.730469 38.730469 167.859375 38.558594 167.9375 C 38.371094 168 38.179688 167.992188 38.011719 167.917969 C 37.847656 167.839844 37.707031 167.695312 37.640625 167.507812 C 37.375 166.800781 37.210938 166.082031 37.15625 165.351562 C 37.09375 164.683594 37.113281 164.027344 37.210938 163.386719 C 37.113281 163.371094 37.015625 163.371094 36.914062 163.371094 C 36.746094 163.371094 36.574219 163.386719 36.402344 163.40625 C 36.179688 163.425781 35.964844 163.46875 35.746094 163.523438 C 35.523438 163.578125 35.308594 163.640625 35.109375 163.730469 L 35.046875 163.75 C 34.460938 164 33.941406 164.351562 33.515625 164.785156 C 33.066406 165.234375 32.726562 165.757812 32.484375 166.324219 C 32.261719 166.867188 32.132812 167.445312 32.125 168.046875 C 32.109375 168.53125 32.179688 169.027344 32.320312 169.507812 C 32.40625 169.453125 32.492188 169.414062 32.582031 169.363281 C 32.746094 169.269531 32.933594 169.191406 33.105469 169.117188 C 33.402344 169 33.707031 168.886719 34.023438 168.8125 C 34.34375 168.738281 34.660156 168.695312 34.980469 168.660156 C 35.296875 168.640625 35.621094 168.640625 35.9375 168.660156 C 36.257812 168.679688 36.574219 168.722656 36.894531 168.804688 C 37.085938 168.847656 37.246094 168.972656 37.34375 169.121094 C 37.4375 169.273438 37.472656 169.460938 37.429688 169.660156 C 37.390625 169.847656 37.28125 170.011719 37.113281 170.109375 C 36.960938 170.199219 36.773438 170.238281 36.574219 170.199219 C 36.332031 170.144531 36.089844 170.109375 35.84375 170.089844 C 35.59375 170.066406 35.351562 170.066406 35.097656 170.089844 C 34.847656 170.109375 34.605469 170.148438 34.363281 170.207031 C 34.121094 170.265625 33.878906 170.351562 33.652344 170.433594 C 33.050781 170.679688 32.539062 171.046875 32.097656 171.46875 C 31.648438 171.921875 31.296875 172.445312 31.0625 173.027344 C 30.832031 173.605469 30.703125 174.226562 30.703125 174.859375 C 30.703125 175.472656 30.820312 176.09375 31.074219 176.695312 C 31.324219 177.28125 31.675781 177.804688 32.109375 178.230469 C 32.558594 178.679688 33.09375 179.03125 33.671875 179.265625 C 34.238281 179.507812 34.875 179.625 35.511719 179.625 C 36.113281 179.625 36.734375 179.507812 37.335938 179.265625 C 37.410156 179.230469 37.480469 179.203125 37.542969 179.171875 C 37.605469 179.136719 37.671875 179.109375 37.734375 179.074219 L 37.910156 178.976562 C 38.148438 178.300781 38.453125 177.644531 38.839844 177.046875 C 39.234375 176.433594 39.703125 175.878906 40.273438 175.410156 C 40.445312 175.148438 40.574219 174.867188 40.6875 174.585938 C 40.796875 174.28125 40.871094 173.96875 40.914062 173.652344 C 40.957031 173.292969 40.957031 172.9375 40.898438 172.570312 C 40.859375 172.21875 40.753906 171.875 40.617188 171.542969 C 40.582031 171.453125 40.554688 171.371094 40.507812 171.296875 C 40.457031 171.21875 40.429688 171.128906 40.375 171.054688 C 40.332031 170.976562 40.285156 170.902344 40.230469 170.824219 C 40.1875 170.75 40.132812 170.675781 40.078125 170.605469 C 39.960938 170.441406 39.90625 170.253906 39.933594 170.082031 C 39.953125 169.894531 40.042969 169.722656 40.210938 169.597656 C 40.363281 169.480469 40.546875 169.433594 40.734375 169.453125 C 40.90625 169.488281 41.085938 169.570312 41.203125 169.730469 C 41.28125 169.828125 41.347656 169.921875 41.410156 170.027344 C 41.488281 170.136719 41.558594 170.234375 41.605469 170.34375 C 41.667969 170.441406 41.722656 170.550781 41.777344 170.660156 C 41.832031 170.769531 41.886719 170.882812 41.929688 171 C 42.117188 171.445312 42.246094 171.914062 42.304688 172.382812 C 42.363281 172.867188 42.378906 173.34375 42.316406 173.824219 C 42.304688 173.96875 42.277344 174.109375 42.253906 174.261719 L 42.242188 174.273438 L 42.28125 174.261719 C 43.859375 173.703125 45.058594 173.460938 46.070312 173.382812 C 47.078125 173.292969 47.871094 173.371094 48.652344 173.445312 C 49.480469 173.535156 50.285156 173.613281 51.320312 173.425781 C 52.351562 173.253906 53.628906 172.8125 55.433594 171.875 C 55.605469 171.785156 55.789062 171.765625 55.96875 171.820312 C 56.101562 171.859375 56.21875 171.9375 56.324219 172.046875 L 56.335938 172.046875 L 56.378906 172.136719 C 56.398438 172.175781 56.417969 172.210938 56.433594 172.253906 C 56.449219 172.273438 56.785156 173.136719 56.640625 174.253906 C 57.351562 173.859375 57.898438 173.246094 58.347656 172.535156 C 58.886719 171.695312 59.28125 170.714844 59.640625 169.839844 C 59.945312 169.089844 60.21875 168.398438 60.558594 167.855469 C 60.875 167.328125 61.25 166.9375 61.726562 166.769531 C 61.761719 166.621094 61.769531 166.46875 61.78125 166.300781 C 61.796875 166.109375 61.796875 165.894531 61.78125 165.703125 C 61.769531 165.453125 61.726562 165.199219 61.671875 164.957031 C 61.617188 164.710938 61.539062 164.46875 61.441406 164.242188 C 61.203125 163.660156 60.855469 163.15625 60.433594 162.746094 C 60 162.308594 59.480469 161.972656 58.929688 161.738281 C 58.679688 161.640625 58.402344 161.550781 58.125 161.496094 C 57.863281 161.433594 57.585938 161.398438 57.316406 161.398438 L 57.296875 161.398438 C 57.277344 161.398438 57.253906 161.398438 57.222656 161.398438 L 57.160156 161.386719 C 56.863281 161.386719 56.570312 161.421875 56.273438 161.480469 C 55.976562 161.539062 55.6875 161.628906 55.390625 161.746094 C 54.863281 161.964844 54.410156 162.269531 54 162.640625 C 53.59375 163.019531 53.269531 163.480469 53.019531 163.972656 C 52.777344 164.460938 52.625 165.007812 52.570312 165.566406 C 52.515625 166.101562 52.558594 166.652344 52.714844 167.210938 C 52.757812 167.398438 52.738281 167.59375 52.640625 167.75 C 52.550781 167.917969 52.398438 168.035156 52.210938 168.089844 C 52.019531 168.144531 51.832031 168.109375 51.664062 168.011719 C 51.515625 167.921875 51.390625 167.769531 51.339844 167.585938 C 51.148438 166.867188 51.09375 166.128906 51.15625 165.425781 C 51.230469 164.710938 51.429688 164 51.742188 163.351562 C 52.058594 162.695312 52.496094 162.109375 53.035156 161.605469 C 53.546875 161.117188 54.160156 160.722656 54.859375 160.425781 C 55.140625 160.308594 55.445312 160.207031 55.757812 160.128906 C 55.984375 160.074219 56.207031 160.039062 56.433594 160.011719 C 56.414062 159.902344 56.371094 159.785156 56.335938 159.660156 C 56.296875 159.542969 56.246094 159.433594 56.207031 159.308594 C 55.964844 158.730469 55.625 158.226562 55.195312 157.8125 C 54.769531 157.386719 54.257812 157.046875 53.699219 156.820312 C 53.136719 156.59375 52.535156 156.46875 51.929688 156.46875 C 51.339844 156.46875 50.734375 156.578125 50.160156 156.820312 C 49.585938 157.0625 49.074219 157.40625 48.660156 157.828125 C 48.230469 158.261719 47.894531 158.777344 47.664062 159.332031 C 47.4375 159.890625 47.304688 160.488281 47.3125 161.097656 C 47.3125 161.683594 47.421875 162.289062 47.664062 162.863281 C 47.761719 163.089844 47.886719 163.316406 48.015625 163.539062 C 48.164062 163.742188 48.316406 163.949219 48.488281 164.152344 C 48.652344 164.34375 48.839844 164.523438 49.03125 164.6875 C 49.242188 164.839844 49.449219 164.984375 49.667969 165.117188 C 49.839844 165.210938 49.964844 165.363281 50.007812 165.542969 C 50.0625 165.714844 50.042969 165.917969 49.945312 166.082031 C 49.855469 166.253906 49.695312 166.378906 49.515625 166.417969 C 49.34375 166.476562 49.15625 166.453125 48.976562 166.359375 C 48.679688 166.191406 48.398438 166.007812 48.136719 165.800781 C 47.871094 165.59375 47.628906 165.351562 47.417969 165.109375 C 47.195312 164.859375 46.988281 164.585938 46.816406 164.300781 C 46.640625 164.019531 46.476562 163.722656 46.359375 163.421875 C 46.042969 162.65625 45.890625 161.882812 45.890625 161.101562 C 45.890625 160.304688 46.042969 159.515625 46.34375 158.785156 C 46.441406 158.542969 46.566406 158.304688 46.683594 158.089844 C 46.746094 157.984375 46.828125 157.863281 46.910156 157.730469 Z M 41.265625 176.472656 C 41.210938 176.535156 41.15625 176.589844 41.09375 176.640625 C 41.050781 176.671875 40.996094 176.703125 40.941406 176.730469 C 40.535156 177.101562 40.210938 177.527344 39.925781 177.996094 C 39.628906 178.480469 39.402344 179.003906 39.214844 179.550781 C 39.199219 179.589844 39.195312 179.644531 39.179688 179.695312 C 39.160156 179.734375 39.144531 179.785156 39.117188 179.824219 C 38.820312 180.796875 38.648438 181.824219 38.558594 182.839844 C 38.480469 183.789062 38.480469 184.714844 38.515625 185.546875 C 39.582031 183.230469 40.933594 182.050781 42.53125 181.464844 C 44.292969 180.824219 46.296875 180.929688 48.460938 181.050781 C 49.785156 181.113281 51.160156 181.199219 52.570312 181.074219 C 53.960938 180.964844 55.371094 180.644531 56.773438 179.964844 C 59.957031 178.371094 61.296875 175.867188 61.800781 173.542969 C 62.238281 171.5 62.042969 169.578125 61.84375 168.507812 C 61.566406 168.914062 61.285156 169.621094 60.964844 170.40625 C 60.511719 171.515625 60.007812 172.765625 59.238281 173.820312 C 58.472656 174.867188 57.457031 175.707031 55.992188 176.011719 C 55.535156 176.707031 54.773438 177.382812 53.59375 177.941406 C 52.378906 178.5 50.71875 178.921875 48.417969 179.085938 C 48.226562 179.101562 48.039062 179.03125 47.894531 178.914062 C 47.761719 178.796875 47.664062 178.617188 47.652344 178.425781 C 47.628906 178.230469 47.707031 178.046875 47.824219 177.914062 C 47.941406 177.769531 48.105469 177.6875 48.308594 177.667969 C 51.699219 177.425781 53.46875 176.605469 54.367188 175.6875 C 55.101562 174.957031 55.253906 174.171875 55.246094 173.589844 C 53.613281 174.378906 52.390625 174.75 51.363281 174.902344 C 50.277344 175.066406 49.414062 174.976562 48.515625 174.886719 C 47.816406 174.824219 47.089844 174.742188 46.1875 174.824219 C 45.28125 174.910156 44.195312 175.121094 42.765625 175.625 C 42.488281 175.722656 42.242188 175.832031 42 175.964844 C 41.757812 176.09375 41.542969 176.238281 41.328125 176.398438 Z M 42.722656 164.425781 C 42.800781 164.253906 42.945312 164.109375 43.117188 164.046875 C 43.285156 163.984375 43.476562 163.972656 43.664062 164.046875 C 43.835938 164.125 43.980469 164.269531 44.042969 164.425781 C 44.105469 164.597656 44.121094 164.785156 44.042969 164.972656 C 43.953125 165.199219 43.878906 165.425781 43.835938 165.667969 C 43.78125 165.917969 43.761719 166.15625 43.761719 166.398438 C 43.761719 166.640625 43.78125 166.882812 43.835938 167.117188 C 43.878906 167.359375 43.953125 167.597656 44.058594 167.828125 C 44.246094 168.28125 44.527344 168.703125 44.867188 169.027344 C 45.21875 169.378906 45.632812 169.648438 46.082031 169.832031 C 46.53125 170.019531 47.023438 170.117188 47.511719 170.117188 C 47.984375 170.117188 48.472656 170.019531 48.9375 169.832031 C 49.121094 169.757812 49.316406 169.757812 49.480469 169.832031 C 49.65625 169.894531 49.800781 170.027344 49.875 170.210938 C 49.9375 170.398438 49.9375 170.585938 49.875 170.757812 C 49.800781 170.921875 49.667969 171.0625 49.480469 171.136719 C 48.839844 171.414062 48.167969 171.53125 47.511719 171.542969 C 46.820312 171.542969 46.160156 171.398438 45.53125 171.148438 C 44.90625 170.886719 44.335938 170.515625 43.859375 170.039062 C 43.386719 169.570312 43.007812 169.011719 42.730469 168.371094 C 42.601562 168.054688 42.503906 167.730469 42.433594 167.398438 C 42.371094 167.074219 42.335938 166.730469 42.335938 166.390625 C 42.335938 166.054688 42.371094 165.714844 42.433594 165.386719 C 42.503906 165.066406 42.605469 164.738281 42.722656 164.425781 Z M 54.679688 171.324219 C 54.527344 171.382812 54.355469 171.414062 54.195312 171.363281 C 54.027344 171.324219 53.875 171.234375 53.78125 171.082031 C 53.667969 170.914062 53.636719 170.730469 53.667969 170.542969 C 53.691406 170.371094 53.800781 170.191406 53.953125 170.089844 C 53.988281 170.074219 54.007812 170.054688 54.042969 170.046875 C 54.0625 170.027344 54.097656 170.011719 54.117188 170.011719 C 54.546875 169.828125 54.921875 169.578125 55.210938 169.269531 C 55.527344 168.945312 55.777344 168.570312 55.957031 168.15625 C 56.121094 167.742188 56.207031 167.308594 56.207031 166.859375 C 56.21875 166.425781 56.128906 165.984375 55.957031 165.550781 L 55.9375 165.507812 C 55.902344 165.433594 55.878906 165.378906 55.847656 165.316406 C 55.824219 165.261719 55.785156 165.199219 55.75 165.128906 C 55.707031 165.066406 55.671875 165 55.632812 164.945312 C 55.589844 164.882812 55.542969 164.828125 55.5 164.757812 C 55.382812 164.605469 55.335938 164.40625 55.355469 164.234375 C 55.375 164.046875 55.472656 163.882812 55.632812 163.765625 C 55.785156 163.648438 55.984375 163.597656 56.15625 163.621094 C 56.34375 163.640625 56.507812 163.730469 56.628906 163.894531 C 56.6875 163.972656 56.757812 164.0625 56.8125 164.144531 C 56.875 164.242188 56.929688 164.332031 56.988281 164.417969 C 57.042969 164.507812 57.082031 164.605469 57.136719 164.703125 C 57.179688 164.792969 57.226562 164.890625 57.269531 164.984375 C 57.519531 165.597656 57.644531 166.21875 57.644531 166.839844 C 57.644531 167.480469 57.511719 168.117188 57.269531 168.710938 C 57.027344 169.289062 56.683594 169.820312 56.234375 170.265625 C 55.804688 170.703125 55.28125 171.0625 54.679688 171.324219 Z M 31.121094 170.441406 C 30.824219 169.695312 30.695312 168.9375 30.6875 168.179688 C 30.6875 167.351562 30.851562 166.542969 31.15625 165.800781 C 31.476562 165.046875 31.925781 164.359375 32.503906 163.777344 C 33.066406 163.21875 33.742188 162.75 34.515625 162.433594 L 34.53125 162.421875 C 34.804688 162.308594 35.074219 162.214844 35.371094 162.144531 C 35.65625 162.066406 35.953125 162.011719 36.25 161.980469 C 36.492188 161.957031 36.734375 161.945312 36.984375 161.945312 C 37.167969 161.945312 37.355469 161.957031 37.542969 161.980469 C 37.578125 161.867188 37.605469 161.773438 37.640625 161.683594 C 37.695312 161.53125 37.757812 161.378906 37.824219 161.226562 C 38.253906 160.246094 38.875 159.335938 39.648438 158.585938 C 40.394531 157.839844 41.289062 157.242188 42.316406 156.820312 C 42.808594 156.613281 43.324219 156.460938 43.835938 156.351562 C 44.363281 156.242188 44.886719 156.179688 45.425781 156.179688 C 45.882812 156.164062 46.332031 156.199219 46.78125 156.269531 C 47.1875 156.324219 47.589844 156.414062 47.996094 156.53125 C 48.21875 156.34375 48.453125 156.160156 48.707031 156.007812 C 48.992188 155.835938 49.296875 155.667969 49.613281 155.539062 C 50.359375 155.222656 51.148438 155.070312 51.921875 155.070312 C 52.722656 155.070312 53.511719 155.234375 54.242188 155.523438 C 54.960938 155.828125 55.644531 156.269531 56.210938 156.835938 C 56.757812 157.378906 57.207031 158.035156 57.523438 158.785156 C 57.582031 158.9375 57.636719 159.089844 57.691406 159.234375 C 57.734375 159.386719 57.78125 159.539062 57.824219 159.703125 C 57.84375 159.792969 57.855469 159.875 57.878906 159.945312 L 57.890625 160.035156 C 58.140625 160.054688 58.382812 160.097656 58.625 160.164062 C 58.921875 160.226562 59.203125 160.332031 59.488281 160.449219 C 60.21875 160.746094 60.890625 161.191406 61.457031 161.746094 C 62.003906 162.289062 62.453125 162.957031 62.769531 163.710938 C 62.902344 164.011719 62.996094 164.332031 63.074219 164.648438 C 63.148438 164.964844 63.191406 165.289062 63.21875 165.625 C 63.238281 165.929688 63.238281 166.242188 63.21875 166.542969 C 63.183594 166.828125 63.144531 167.109375 63.074219 167.390625 C 63.238281 168.027344 63.765625 170.441406 63.316406 173.191406 C 62.867188 176.03125 61.382812 179.226562 57.40625 181.203125 C 55.832031 181.992188 54.277344 182.34375 52.757812 182.472656 C 51.25 182.605469 49.792969 182.527344 48.390625 182.453125 L 48.375 182.453125 C 44.140625 182.226562 40.574219 182.039062 38.839844 189.003906 C 38.800781 189.195312 38.675781 189.355469 38.515625 189.4375 C 38.363281 189.535156 38.164062 189.570312 37.976562 189.527344 C 37.832031 189.492188 37.714844 189.417969 37.617188 189.320312 C 37.527344 189.210938 37.464844 189.078125 37.445312 188.941406 C 37.410156 188.777344 37.203125 187.632812 37.121094 186.039062 C 37.042969 184.535156 37.066406 182.625 37.4375 180.757812 C 36.796875 180.976562 36.125 181.074219 35.46875 181.074219 C 34.660156 181.074219 33.859375 180.90625 33.125 180.605469 C 32.375 180.300781 31.683594 179.839844 31.101562 179.257812 C 30.535156 178.699219 30.074219 178.023438 29.746094 177.238281 C 29.421875 176.46875 29.269531 175.667969 29.269531 174.867188 C 29.269531 174.046875 29.4375 173.238281 29.742188 172.488281 C 29.90625 172.082031 30.113281 171.6875 30.363281 171.328125 C 30.597656 171.019531 30.847656 170.707031 31.121094 170.441406 Z M 31.121094 170.441406 " fill-opacity="1" fill-rule="nonzero"/></g><g clip-path="url(#0781544838)"><g clip-path="url(#d1d291588f)"><g clip-path="url(#6bf98bc9d4)"><path fill="#ffffff" d="M 16.589844 182.730469 C 16.269531 181.367188 17.582031 179.914062 18.976562 180.230469 C 19.894531 180.355469 20.433594 181.183594 20.730469 181.988281 C 22.109375 181.515625 23.65625 182.394531 23.796875 183.894531 C 24.835938 183.683594 26.089844 184.042969 26.460938 185.144531 C 26.914062 186.664062 27.128906 188.246094 27.316406 189.816406 C 27.566406 190.496094 26.34375 190.910156 26.144531 190.199219 C 25.8125 188.636719 25.765625 187.007812 25.242188 185.488281 C 25.003906 185.019531 24.457031 185.132812 24.039062 185.175781 C 24.261719 186.671875 24.699219 188.132812 24.886719 189.628906 C 25.003906 190.21875 23.964844 190.492188 23.738281 189.914062 C 23.203125 187.859375 22.914062 185.746094 22.398438 183.683594 C 22.328125 183.011719 21.484375 183.1875 21.035156 183.226562 C 21.664062 185.621094 22.445312 187.980469 23.035156 190.382812 C 23.207031 191.007812 22.113281 191.359375 21.898438 190.734375 C 20.984375 187.921875 20.273438 185.042969 19.410156 182.214844 C 19.34375 181.792969 18.96875 181.550781 18.59375 181.4375 C 17.976562 181.484375 17.707031 182.15625 17.871094 182.691406 C 18.601562 186.308594 19.300781 189.929688 20.070312 193.539062 C 20.90625 196.636719 22.417969 199.875 25.328125 201.507812 C 27.984375 203.089844 31.054688 204.472656 32.488281 207.410156 C 32.773438 207.917969 32.054688 208.484375 31.605469 208.164062 C 30.773438 207.210938 30.164062 206.027344 29.097656 205.296875 C 26.871094 203.675781 24.136719 202.761719 22.257812 200.671875 C 20.3125 198.410156 19.140625 195.550781 18.582031 192.636719 C 17.929688 189.332031 17.246094 186.035156 16.589844 182.730469 Z M 16.589844 182.730469 " fill-opacity="1" fill-rule="nonzero"/></g></g></g><g clip-path="url(#0828c1734a)"><g clip-path="url(#5a57bde40e)"><g clip-path="url(#98d3fb9103)"><path fill="#ffffff" d="M 22.9375 191.632812 C 23.644531 190.921875 24.804688 190.59375 25.722656 191.101562 C 27.472656 192.101562 29.046875 193.386719 30.8125 194.367188 C 32.652344 195.328125 34.976562 195.820312 36.046875 197.800781 C 37.28125 200.199219 38.359375 202.683594 39.621094 205.074219 C 39.929688 205.445312 39.835938 206.035156 39.339844 206.171875 C 38.855469 206.316406 38.613281 205.839844 38.425781 205.488281 C 37.199219 203.214844 36.1875 200.828125 35.007812 198.527344 C 34.304688 197.128906 32.742188 196.648438 31.425781 196.046875 C 29.125 195.128906 27.265625 193.421875 25.125 192.21875 C 24.449219 191.820312 23.230469 192.648438 23.816406 193.421875 C 25.480469 195.339844 27.503906 196.925781 29.214844 198.800781 C 29.589844 199.402344 28.65625 200.046875 28.21875 199.511719 C 26.535156 197.953125 24.902344 196.339844 23.253906 194.746094 C 22.398438 193.980469 22.0625 192.507812 22.9375 191.632812 Z M 22.9375 191.632812 " fill-opacity="1" fill-rule="nonzero"/></g></g></g><g clip-path="url(#ca48f47fd8)"><g clip-path="url(#67c9bfd1f7)"><g clip-path="url(#844446ae65)"><path fill="#ffffff" d="M 73.359375 180.222656 C 74.699219 179.828125 76.089844 181.148438 75.886719 182.503906 C 75.582031 184.328125 75.160156 186.132812 74.820312 187.949219 C 74.136719 191.003906 73.851562 194.191406 72.507812 197.058594 C 71.6875 198.816406 70.628906 200.527344 69.082031 201.730469 C 67.285156 203.179688 65.085938 204.011719 63.253906 205.414062 C 62.277344 206.148438 61.710938 207.261719 60.925781 208.167969 C 60.472656 208.492188 59.761719 207.945312 60.019531 207.433594 C 60.480469 206.546875 61.117188 205.761719 61.789062 205.03125 C 63.992188 202.875 67.152344 202.042969 69.292969 199.8125 C 71.105469 197.6875 72.167969 195.003906 72.675781 192.285156 C 73.308594 189.003906 74 185.734375 74.609375 182.453125 C 74.765625 181.890625 74.214844 181.578125 73.859375 181.277344 C 73.59375 181.574219 73.132812 181.753906 73.046875 182.183594 C 72.269531 184.816406 71.554688 187.46875 70.792969 190.105469 C 70.671875 190.566406 70.460938 191.246094 69.832031 191.015625 C 69.25 190.828125 69.4375 190.195312 69.570312 189.769531 C 70.179688 187.578125 70.828125 185.402344 71.417969 183.207031 C 70.960938 183.15625 70.125 182.996094 70.054688 183.675781 C 69.582031 185.625 69.28125 187.613281 68.828125 189.574219 C 68.839844 190.261719 67.914062 190.433594 67.582031 189.878906 C 67.652344 188.28125 68.222656 186.746094 68.417969 185.160156 C 68 185.109375 67.441406 185.011719 67.214844 185.488281 C 66.699219 187.007812 66.660156 188.628906 66.335938 190.1875 C 66.183594 190.804688 65.105469 190.597656 65.148438 190.003906 C 65.304688 188.359375 65.542969 186.699219 66.007812 185.113281 C 66.378906 184.03125 67.625 183.660156 68.65625 183.878906 C 68.796875 182.371094 70.339844 181.492188 71.722656 181.957031 C 72.011719 181.191406 72.496094 180.394531 73.359375 180.222656 Z M 73.359375 180.222656 " fill-opacity="1" fill-rule="nonzero"/></g></g></g><g clip-path="url(#0580c20516)"><g clip-path="url(#0ec85c5aa8)"><g clip-path="url(#120b8bbbe5)"><path fill="#ffffff" d="M 67.117188 190.941406 C 68.378906 190.519531 70.007812 191.453125 70.074219 192.84375 C 70.109375 193.8125 69.433594 194.582031 68.765625 195.199219 C 67.25 196.617188 65.800781 198.113281 64.265625 199.511719 C 63.832031 200.035156 62.929688 199.410156 63.265625 198.8125 C 64.972656 196.9375 66.972656 195.34375 68.640625 193.4375 C 69.269531 192.679688 68.074219 191.8125 67.378906 192.191406 C 65.230469 193.390625 63.375 195.109375 61.082031 196.042969 C 59.8125 196.632812 58.3125 197.082031 57.574219 198.386719 C 56.253906 200.882812 55.226562 203.53125 53.804688 205.972656 C 53.460938 206.5625 52.398438 205.957031 52.769531 205.378906 C 54.03125 202.871094 55.183594 200.304688 56.457031 197.796875 C 57.308594 196.195312 59.066406 195.546875 60.625 194.863281 C 62.984375 193.902344 64.832031 192.027344 67.117188 190.941406 Z M 67.117188 190.941406 " fill-opacity="1" fill-rule="nonzero"/></g></g></g></svg>